<?xml version="1.0" encoding="UTF-8" standalone="no"?>
<!-- Created with Inkscape (http://www.inkscape.org/) -->

<svg
   width="110px"
   height="140px"
   viewBox="0 0 100 100"
   version="1.1"
   id="svg5"
   xml:space="preserve"
   xmlnsXlink="http://www.w3.org/2000/svg"
   xmlnsXlink="http://www.w3.org/2000/svg"><defs
     id="defs2" /><g
     id="layer1"
     transform="translate(-78.732942,-92.723005)"><g
       id="g89540"><path
         style="fill:#fae0a6;stroke-width:0.264583"
         d="m 116.22513,161.96072 c -0.69951,-0.75084 -0.68127,-1.00845 0.0714,-1.00845 0.86061,0 1.62862,0.62117 1.42478,1.15237 -0.23159,0.60353 -0.85577,0.54348 -1.49619,-0.14392 z m 0.69525,-0.1265 c -0.097,-0.097 -0.17639,-0.0176 -0.17639,0.17639 0,0.19402 0.0794,0.2734 0.17639,0.17639 0.097,-0.097 0.097,-0.25577 0,-0.35278 z m 6.8098,-1.18741 c -0.11697,-0.18926 -0.0726,-0.23365 0.11668,-0.11668 0.30499,0.1885 0.40948,0.42214 0.18878,0.42214 -0.0642,0 -0.20163,-0.13746 -0.30546,-0.30546 z m -22.06744,-10.72559 c 0.3638,-0.0741 0.75982,-0.27162 0.88004,-0.43885 0.14611,-0.20325 0.1832,-0.17248 0.11188,0.0928 -0.0602,0.22389 -0.44376,0.41517 -0.88004,0.43884 -0.666,0.0362 -0.68153,0.0233 -0.11188,-0.0928 z m 6.20683,-0.0991 c -0.0959,-0.1552 -0.10295,-0.35364 -0.0156,-0.44097 0.0873,-0.0873 0.15878,-0.0286 0.15878,0.13049 0,0.15911 0.20836,0.34373 0.46302,0.41028 0.41744,0.10909 0.41898,0.12402 0.0156,0.15169 -0.24607,0.0169 -0.52588,-0.0963 -0.6218,-0.25149 z m -4.68689,-2.60479 c -0.1427,-2.58973 -0.66732,-4.56195 -0.74523,-2.80157 l -0.0351,0.79375 -0.20334,-0.85629 c -0.25065,-1.05545 -0.94449,-1.98357 -4.502597,-6.02287 -1.53822,-1.74625 -3.13591,-3.59172 -3.55043,-4.10104 -0.41452,-0.50933 -1.57155,-1.7979 -2.57117,-2.8635 -1.57492,-1.67886 -3.93496,-5.09967 -3.93496,-5.70361 0,-0.41637 0.70977,0.54067 1.28134,1.72773 0.58422,1.21336 5.04355,6.17748 5.06013,5.63294 0.009,-0.29803 -1.85143,-2.57097 -3.31013,-4.04394 -2.68862,-2.71491 -4.55608,-10.68523 -3.07829,-13.13817 0.27833,-0.46197 0.29315,-0.42838 0.11673,0.26459 -1.25594,4.93342 0.43585,9.41489 5.83391,15.45366 4.88371,5.46339 8.423677,9.97391 9.157217,11.66789 0.57606,1.33027 1.17969,6.61282 0.75565,6.61282 -0.0711,0 -0.19422,-1.18008 -0.2737,-2.62239 z m -1.37245,-4.98438 c -0.6578,-1.2109 -1.42143,-2.05542 -1.65075,-1.82562 -0.11909,0.11934 0.11089,0.49881 0.51107,0.84325 0.40018,0.34445 0.7276,0.72722 0.7276,0.85062 0,0.2145 0.54116,0.85936 0.72117,0.85936 0.0474,0 -0.0917,-0.32743 -0.30909,-0.72761 z m -1.999577,-2.55884 c 0,-0.49759 -3.37888,-4.16957 -3.56284,-3.87191 -0.0785,0.12702 0.21477,0.53178 0.65172,0.89945 0.43695,0.36767 0.79446,0.7428 0.79446,0.83362 0,0.16935 1.903,2.51487 2.0404,2.51487 0.0419,0 0.0763,-0.16922 0.0763,-0.37603 z m -4.12436,-4.98178 c -0.92833,-1.10042 -1.37461,-1.49044 -1.5289,-1.33615 -0.0843,0.0843 0.28345,0.55341 0.81729,1.0424 1.11798,1.02403 1.43973,1.15684 0.71161,0.29375 z m 11.268107,14.88281 c 0,-0.19403 0.0794,-0.2734 0.17639,-0.17639 0.097,0.097 0.097,0.25576 0,0.35278 -0.097,0.097 -0.17639,0.0176 -0.17639,-0.17639 z m 2.91138,-0.3589 c 0.65355,-0.74782 3.06005,-2.28412 3.57092,-2.27966 0.14552,0.001 -0.38937,0.36273 -1.18865,0.80324 -0.79927,0.44051 -1.81087,1.12296 -2.24799,1.51656 l -0.79477,0.71563 z m -9.61303,-0.69943 c -0.276817,-1.61361 -0.707707,-2.1886 -2.067027,-2.7583 -1.59899,-0.67015 -2.86619,-1.30544 -2.77862,-1.39301 0.15345,-0.15345 3.62335,1.43572 4.12386,1.88867 0.628297,0.5686 1.147217,2.022 1.018747,2.85336 -0.0613,0.39657 -0.16193,0.19635 -0.29696,-0.59072 z m 5.37874,0.52916 c 0,-0.19402 0.0794,-0.2734 0.17639,-0.17639 0.097,0.097 0.097,0.25577 0,0.35278 -0.097,0.097 -0.17639,0.0176 -0.17639,-0.17639 z m 1.5956,-0.13229 c 0,-0.14552 0.11542,-0.44318 0.25648,-0.66146 0.14107,-0.21828 0.25648,-0.27781 0.25648,-0.13229 0,0.14552 -0.11541,0.44318 -0.25648,0.66146 -0.14106,0.21828 -0.25648,0.27781 -0.25648,0.13229 z m -1.23564,-2.77812 c 0,-1.38245 0.0446,-1.948 0.0991,-1.25678 0.0545,0.69123 0.0545,1.82232 0,2.51355 -0.0545,0.69122 -0.0991,0.12567 -0.0991,-1.25677 z m 2.28587,2.13228 c 0,-0.13693 0.1177,-0.32171 0.26155,-0.41062 0.14999,-0.0927 0.19434,0.0135 0.10399,0.24897 -0.17589,0.45837 -0.36554,0.54223 -0.36554,0.16165 z m -5.74155,-1.60312 c 0,-0.80036 0.0496,-1.12778 0.11023,-0.7276 0.0606,0.40018 0.0606,1.05502 0,1.45521 -0.0606,0.40018 -0.11023,0.0728 -0.11023,-0.72761 z m 2.51479,-3.57187 c -0.24712,-6.74934 -1.24225,-10.83077 -3.80814,-15.61872 -0.38748,-0.72304 -0.94889,-1.79087 -1.247557,-2.37295 -0.72711,-1.41704 -3.01724,-5.25531 -4.0628,-6.80928 -0.99666,-1.48128 -1.88034,-3.7325 -2.07969,-5.29814 -0.0973,-0.76424 0.0229,-0.51664 0.37726,0.77689 0.60817,2.22017 0.9892,3.00707 2.6679,5.5097 6.379667,9.51085 8.555487,15.85124 8.409937,24.50673 l -0.0729,4.33285 z m 2.7009,4.53012 c -0.008,-0.54076 1.63552,-3.02343 2.64814,-4.00096 1.83119,-1.76771 2.45785,-3.43074 2.92599,-7.76496 0.62904,-5.82393 -1.17843,-10.76966 -7.64137,-20.90891 -2.71797,-4.26403 -4.40543,-7.48054 -4.21856,-8.04114 0.0523,-0.157 0.24501,0.122 0.42816,0.61999 0.75828,2.0617 3.10777,5.98916 3.40501,5.69191 0.08,-0.08 -0.15875,-0.60527 -0.53061,-1.1672 -2.70299,-4.08448 -3.82666,-10.38815 -2.48456,-13.93802 0.52069,-1.377237 0.53582,-1.065095 0.0405,0.83643 -1.07524,4.1281 0.14465,9.03113 3.47831,13.98024 2.05749,3.05452 4.32689,6.66815 4.32689,6.88983 0,0.0947 0.25531,0.53078 0.56735,0.969 4.9221,6.91245 5.70518,16.9598 1.77114,22.72483 -0.47691,0.69888 -0.90928,1.22853 -0.96083,1.17698 -0.0515,-0.0515 0.25993,-0.5819 0.69216,-1.17857 3.4439,-4.75418 3.21455,-13.24093 -0.54229,-20.06648 -1.88514,-3.42497 -1.8755,-2.85556 0.0274,1.62095 2.29652,5.40235 2.59017,7.55511 1.72167,12.62152 -0.50643,2.95428 -1.52179,5.14217 -2.92203,6.29637 -0.54372,0.44818 -1.38023,1.5024 -1.85891,2.34272 -0.47868,0.84031 -0.87181,1.42328 -0.87364,1.29547 z m 0.35696,-30.45929 c -0.0838,-0.21828 -0.25488,-0.39687 -0.38027,-0.39687 -0.12538,0 -0.15944,0.17859 -0.0757,0.39687 0.0838,0.21828 0.25489,0.39688 0.38027,0.39688 0.12539,0 0.15944,-0.1786 0.0757,-0.39688 z m -1.10551,-1.51253 c -0.18985,-0.18986 -0.31309,-0.20548 -0.31309,-0.0397 0,0.35316 0.3129,0.66606 0.48948,0.48948 0.0752,-0.0752 -0.004,-0.27759 -0.17639,-0.44979 z m -0.90289,-1.57979 c -0.0576,-0.1728 -0.2462,-0.36134 -0.4191,-0.41898 -0.19335,-0.0645 -0.25248,0.0565 -0.1536,0.31419 0.18456,0.48094 0.73144,0.58101 0.5727,0.10479 z m 2.91434,32.97012 c 0.31621,-0.58373 1.86865,-2.11475 1.97218,-1.94497 0.0379,0.0622 -0.45238,0.63973 -1.08951,1.28351 -0.63713,0.64377 -1.03433,0.94143 -0.88267,0.66146 z m 6.93588,-1.35299 c 3.25104,-1.83003 6.63989,-5.90838 8.20149,-9.87019 2.70485,-6.86225 -1.95247,-18.69455 -11.85559,-30.12008 -1.61511,-1.8634 -2.3582,-5.13642 -1.65198,-7.276287 0.29897,-0.905889 2.41606,-3.086378 2.99664,-3.086378 0.14404,0 -0.3466,0.484491 -1.09032,1.076647 -3.06114,2.437316 -2.61746,5.985998 1.34776,10.779868 1.05584,1.27649 2.13205,2.61355 2.39159,2.97125 10.56232,14.55726 11.63203,24.78286 3.44863,32.96626 -1.25672,1.25672 -4.65854,3.54089 -5.25882,3.53106 -0.13706,-0.002 0.52471,-0.43971 1.4706,-0.97215 z m -23.905757,-2.70425 c -4.73185,-2.34551 -7.54728,-6.57776 -7.95088,-11.95202 l -0.14737,-1.96229 0.37536,2.24896 c 0.9929,5.94889 3.26486,9.18709 8.13441,11.5939 1.49845,0.74061 2.60538,1.3504 2.45986,1.35509 -0.14552,0.005 -1.43764,-0.57295 -2.87138,-1.28364 z m 14.045057,-0.57406 c 0.0936,-0.35777 0.21349,-0.47771 0.27954,-0.27955 0.0636,0.19089 -0.0101,0.47286 -0.16386,0.62661 -0.19634,0.19634 -0.23077,0.093 -0.11568,-0.34706 z m -0.29328,-3.30357 c -0.39434,-5.60999 -2.39985,-10.964 -6.635067,-17.71336 -4.40722,-7.02344 -5.89633,-11.40477 -4.8997,-14.41603 0.13631,-0.41185 0.16478,-0.01 0.0754,1.06526 -0.16598,1.99764 0.34347,4.36002 1.42497,6.60766 0.76458,1.58901 4.428997,7.82827 4.972597,8.46667 2.31582,2.71962 5.26978,11.66082 5.47938,16.58526 0.11285,2.65136 -0.22307,2.17241 -0.41763,-0.59546 z M 84.324373,128.05063 c 0.1083,-0.95169 1.5427,-4.40461 1.82975,-4.40461 0.0713,0 -0.22255,0.77666 -0.65296,1.7259 -0.43041,0.94925 -0.89736,2.16964 -1.03767,2.71198 l -0.25511,0.98608 z m 2.95126,-3.22421 c -0.25531,-0.66535 -0.18,-0.83702 0.13191,-0.30066 0.15443,0.26558 0.22505,0.5386 0.15693,0.60673 -0.0681,0.0681 -0.1981,-0.0696 -0.28884,-0.30607 z m -0.69414,-1.44498 c -0.23847,-0.15411 -0.2711,-0.2581 -0.0818,-0.26053 0.17331,-0.002 0.3887,0.11501 0.47863,0.26053 0.20302,0.32849 0.11143,0.32849 -0.39687,0 z m 1.32291,-8.46667 c 0,-0.19402 0.0794,-0.2734 0.17639,-0.17639 0.097,0.097 0.097,0.25577 0,0.35278 -0.097,0.097 -0.17639,0.0176 -0.17639,-0.17639 z m 0.26558,-0.6835 c 0.001,-0.29699 0.99992,-1.96233 1.17682,-1.96233 0.07,0 -0.12836,0.44648 -0.44079,0.99219 -0.69975,1.22224 -0.73726,1.27168 -0.73603,0.97014 z m 2.11568,-3.15295 c 0.49365,-0.50933 0.95708,-0.92605 1.02984,-0.92605 0.0728,0 -0.27161,0.41672 -0.76526,0.92605 -0.49366,0.50932 -0.95709,0.92604 -1.02985,0.92604 -0.0728,0 0.27161,-0.41672 0.76527,-0.92604 z m 3.06916,-0.42334 c -0.097,-0.60638 -0.12464,-1.15418 -0.0615,-1.21732 0.0631,-0.0631 0.19797,0.3775 0.29963,0.9792 0.10166,0.60169 0.12933,1.14948 0.0615,1.21731 -0.0678,0.0678 -0.20266,-0.3728 -0.29963,-0.97919 z m -1.42182,-0.92041 c 0.2512,-0.26226 0.51367,-0.41989 0.58328,-0.35028 0.0696,0.0696 -0.13592,0.28418 -0.45672,0.47684 -0.55729,0.33467 -0.56293,0.32904 -0.12656,-0.12656 z m 9.242347,-3.81563 c 0,-0.3638 0.0601,-0.51263 0.13345,-0.33073 0.0734,0.1819 0.0734,0.47956 0,0.66146 -0.0734,0.1819 -0.13345,0.0331 -0.13345,-0.33073 z m -6.614577,-0.26458 c 0,-0.36381 0.0601,-0.51263 0.13345,-0.33073 0.0734,0.1819 0.0734,0.47956 0,0.66146 -0.0734,0.1819 -0.13345,0.0331 -0.13345,-0.33073 z m 6.349987,-1.05834 c 0,-0.3638 0.0601,-0.51263 0.13346,-0.33073 0.0734,0.18191 0.0734,0.47956 0,0.66146 -0.0734,0.1819 -0.13346,0.0331 -0.13346,-0.33073 z m -6.127187,0 c 0,-0.19402 0.0794,-0.2734 0.17639,-0.17639 0.097,0.097 0.097,0.25577 0,0.35278 -0.097,0.097 -0.17639,0.0176 -0.17639,-0.17639 z m 0.26459,-0.79375 c 0,-0.19402 0.0794,-0.2734 0.17638,-0.17639 0.097,0.097 0.097,0.25577 0,0.35278 -0.097,0.097 -0.17638,0.0176 -0.17638,-0.17639 z m 5.643057,-1.98437 c 0.001,-1.01865 0.049,-1.40294 0.10628,-0.854 0.0573,0.54895 0.0563,1.38239 -0.002,1.85209 -0.0584,0.46969 -0.1053,0.0206 -0.10413,-0.99809 z m -5.113897,0.73487 c 0,-0.15366 0.24519,-0.56045 0.54487,-0.904 l 0.54487,-0.62462 -0.46479,0.79375 c -0.61173,1.04469 -0.62495,1.06023 -0.62495,0.73487 z m 1.05834,-1.76081 c 0,-0.0549 0.20836,-0.2633 0.46302,-0.46302 0.41964,-0.329108 0.429,-0.31975 0.0999,0.0999 -0.34565,0.44073 -0.56292,0.58088 -0.56292,0.36312 z m 1.43963,-1.076134 c 0.28247,-0.226309 0.62974,-0.411471 0.7717,-0.411471 0.33616,0 0.18606,0.122211 -0.62383,0.507924 -0.6237,0.297031 -0.63214,0.291531 -0.14787,-0.09645 z m 4.910357,-3.509977 c 0,-0.151956 0.20836,-0.43969 0.46303,-0.639409 0.42829,-0.335893 0.43391,-0.323441 0.0749,0.16604 -0.21348,0.291042 -0.42184,0.578776 -0.46302,0.63941 -0.0412,0.06063 -0.0749,-0.01408 -0.0749,-0.166041 z m 11.77396,-1.39941 c 0.0899,-0.145521 0.22305,-0.264584 0.29581,-0.264584 0.0728,0 0.0587,0.119063 -0.0312,0.264584 -0.0899,0.14552 -0.22306,0.264583 -0.29582,0.264583 -0.0728,0 -0.0587,-0.119063 0.0312,-0.264583 z m -10.03859,-0.653044 c 0.28248,-0.213653 0.62565,-0.392247 0.7626,-0.396875 0.13695,-0.0046 0.0179,0.166392 -0.26458,0.380046 -0.28248,0.213653 -0.62565,0.392247 -0.7626,0.396875 -0.13696,0.0046 -0.0179,-0.166393 0.26458,-0.380046 z m 8.58338,-0.58719 c -0.50932,-0.221825 -1.69994,-0.49412 -2.64583,-0.605102 -1.54633,-0.181433 -1.59788,-0.205292 -0.51104,-0.236558 1.28814,-0.03706 3.82228,0.601837 4.08716,1.030435 0.1903,0.307897 0.22739,0.315423 -0.93029,-0.188775 z m -7.32014,0.0055 c 0.097,-0.09701 0.25577,-0.09701 0.35278,0 0.097,0.09701 0.0176,0.176389 -0.17639,0.176389 -0.19402,0 -0.2734,-0.07937 -0.17639,-0.176389 z m 0.79375,-0.264583 c 0.097,-0.09701 0.25577,-0.09701 0.35278,0 0.097,0.09701 0.0176,0.176389 -0.17639,0.176389 -0.19402,0 -0.2734,-0.07937 -0.17639,-0.176389 z m 1.04132,-0.271548 c 0.25744,-0.06708 0.61462,-0.06267 0.79375,0.0098 0.17914,0.07248 -0.0315,0.127361 -0.46805,0.121969 -0.43656,-0.0054 -0.58313,-0.06469 -0.3257,-0.131773 z"
         id="path3622" /><path
         style="fill:#a3a3a3;stroke-width:0.264583"
         d="m 102.65801,204.15681 c 0.32912,-0.0633 0.80537,-0.0609 1.05833,0.005 0.25297,0.0662 -0.0163,0.11801 -0.59839,0.11507 -0.58209,-0.003 -0.78906,-0.0571 -0.45994,-0.12041 z m 3.70417,0 c 0.32911,-0.0633 0.80536,-0.0609 1.05833,0.005 0.25297,0.0662 -0.0163,0.11801 -0.5984,0.11507 -0.58208,-0.003 -0.78905,-0.0571 -0.45993,-0.12041 z m -5.82392,-0.25268 c 0.1819,-0.0734 0.47956,-0.0734 0.66146,0 0.1819,0.0734 0.0331,0.13345 -0.33073,0.13345 -0.3638,0 -0.51263,-0.0601 -0.33073,-0.13345 z m 8.20208,0 c 0.1819,-0.0734 0.47956,-0.0734 0.66146,0 0.1819,0.0734 0.0331,0.13345 -0.33073,0.13345 -0.3638,0 -0.51263,-0.0601 -0.33073,-0.13345 z m -9.635237,-0.26575 c 0.097,-0.097 0.25576,-0.097 0.35278,0 0.097,0.097 0.0176,0.17639 -0.17639,0.17639 -0.19403,0 -0.2734,-0.0794 -0.17639,-0.17639 z m 11.377077,0 c 0.097,-0.097 0.25577,-0.097 0.35278,0 0.097,0.097 0.0176,0.17639 -0.17639,0.17639 -0.19403,0 -0.2734,-0.0794 -0.17639,-0.17639 z m -12.308627,-0.26893 c 0.19099,-0.0764 0.41919,-0.067 0.50711,0.0209 0.0879,0.0879 -0.0683,0.15046 -0.34726,0.13897 -0.30823,-0.0127 -0.37092,-0.0754 -0.15985,-0.15985 z m 13.366957,0.004 c 0.097,-0.097 0.25577,-0.097 0.35278,0 0.097,0.097 0.0176,0.1764 -0.17639,0.1764 -0.19402,0 -0.2734,-0.0794 -0.17639,-0.17639 z m -14.287487,-0.26459 c 0.097,-0.097 0.25576,-0.097 0.35277,0 0.097,0.097 0.0176,0.1764 -0.17639,0.1764 -0.19402,0 -0.2734,-0.0794 -0.17638,-0.17639 z m 15.522217,-0.0435 c 0.21828,-0.13487 0.69453,-0.32483 1.05833,-0.42214 0.45971,-0.12297 0.54041,-0.10214 0.26458,0.0683 -0.21828,0.13487 -0.69453,0.32483 -1.05833,0.42214 -0.45971,0.12297 -0.54041,0.10214 -0.26458,-0.0683 z m -16.315967,-0.22103 c 0.097,-0.097 0.25576,-0.097 0.35277,0 0.097,0.097 0.0176,0.17639 -0.17638,0.17639 -0.19403,0 -0.27341,-0.0794 -0.17639,-0.17639 z m -1.14653,-0.35278 c -0.21828,-0.14106 -0.27781,-0.25648 -0.13229,-0.25648 0.14552,0 0.44317,0.11542 0.66145,0.25648 0.21829,0.14107 0.27782,0.25648 0.1323,0.25648 -0.14552,0 -0.44318,-0.11541 -0.66146,-0.25648 z m 19.402767,-0.17639 c 0.097,-0.097 0.25577,-0.097 0.35278,0 0.097,0.097 0.0176,0.17639 -0.17639,0.17639 -0.19402,0 -0.2734,-0.0794 -0.17639,-0.17639 z m -21.320997,-0.63537 c -0.5457,-0.28809 -0.99219,-0.5829 -0.99219,-0.65514 0,-0.11788 2.08985,0.85879 2.3592,1.10255 0.30447,0.27555 -0.49029,0.0154 -1.36701,-0.44741 z m 24.804687,-1.04032 c 0.0899,-0.14552 0.22305,-0.26458 0.29581,-0.26458 0.0728,0 0.0587,0.11906 -0.0312,0.26458 -0.0899,0.14552 -0.22305,0.26458 -0.29581,0.26458 -0.0728,0 -0.0587,-0.11906 0.0312,-0.26458 z m -27.682707,-0.7276 c -0.32911,-0.41965 -0.31975,-0.42901 0.0999,-0.0999 0.25466,0.19972 0.46302,0.40808 0.46302,0.46302 0,0.21776 -0.21727,0.0776 -0.56291,-0.36312 z m 28.476457,0.19843 c 0.0899,-0.14552 0.22305,-0.26458 0.29581,-0.26458 0.0728,0 0.0587,0.11906 -0.0312,0.26458 -0.0899,0.14553 -0.22305,0.26459 -0.29581,0.26459 -0.0728,0 -0.0587,-0.11906 0.0312,-0.26459 z m 0.79375,-0.52886 c 0.0899,-0.14552 0.22305,-0.26459 0.29581,-0.26459 0.0728,0 0.0587,0.11907 -0.0312,0.26459 -0.0899,0.14552 -0.22305,0.26458 -0.29581,0.26458 -0.0728,0 -0.0587,-0.11906 0.0312,-0.26458 z m -30.187767,-0.30547 c -0.11697,-0.18925 -0.0726,-0.23364 0.11668,-0.11667 0.168,0.10383 0.30546,0.24129 0.30546,0.30546 0,0.2207 -0.23364,0.11621 -0.42214,-0.18879 z m 30.849217,-0.059 c 0,-0.0549 0.20836,-0.2633 0.46302,-0.46302 0.41965,-0.32911 0.42901,-0.31975 0.0999,0.0999 -0.34564,0.44073 -0.56292,0.58089 -0.56292,0.36313 z m -31.783737,-0.62771 c -0.32911,-0.41964 -0.31975,-0.429 0.0999,-0.0999 0.25466,0.19972 0.46302,0.40808 0.46302,0.46302 0,0.21777 -0.21727,0.0776 -0.56292,-0.36312 z m 34.561867,-1.91823 c 1.01084,-1.01864 1.89742,-1.85208 1.97018,-1.85208 0.0728,0 -0.69476,0.83344 -1.7056,1.85208 -1.01084,1.01865 -1.89742,1.85208 -1.97018,1.85208 -0.0728,0 0.69476,-0.83343 1.7056,-1.85208 z m -36.918407,-0.19844 -1.44617,-1.52135 1.52135,1.44617 c 0.83675,0.79539 1.52136,1.48 1.52136,1.52135 0,0.19639 -0.25301,-0.0328 -1.59654,-1.44617 z m -2.14457,-2.38125 c -0.76119,-0.91893 -1.0837,-1.38906 -0.9529,-1.38906 0.0733,0 0.45113,0.41672 0.83961,0.92604 0.72091,0.94517 0.80821,1.30196 0.11329,0.46302 z m 41.692207,-0.41773 c 0.40748,-0.53423 0.79437,-0.97133 0.85977,-0.97133 0.1838,0 -0.96164,1.54773 -1.30037,1.75708 -0.16514,0.10206 0.0331,-0.25153 0.4406,-0.78575 z m -43.135737,-1.54138 c -0.11697,-0.18925 -0.0726,-0.23364 0.11667,-0.11667 0.305,0.1885 0.40949,0.42214 0.18879,0.42214 -0.0642,0 -0.20163,-0.13746 -0.30546,-0.30547 z m 44.210677,0.0409 c 0.0899,-0.14552 0.22305,-0.26458 0.29581,-0.26458 0.0728,0 0.0587,0.11906 -0.0312,0.26458 -0.0899,0.14553 -0.22305,0.26459 -0.29581,0.26459 -0.0728,0 -0.0587,-0.11906 0.0312,-0.26459 z m -45.004437,-1.36379 c -0.11696,-0.18926 -0.0726,-0.23365 0.11668,-0.11668 0.16801,0.10383 0.30547,0.24129 0.30547,0.30547 0,0.22069 -0.23365,0.11621 -0.42215,-0.18879 z m 45.930477,-0.22371 c 0.15576,-0.29104 0.34273,-0.52916 0.41549,-0.52916 0.0728,0 0.005,0.23812 -0.15091,0.52916 -0.15576,0.29105 -0.34273,0.52917 -0.41549,0.52917 -0.0728,0 -0.005,-0.23812 0.15091,-0.52917 z m 0.53727,-0.92604 c 0,-0.14552 0.11541,-0.44317 0.25648,-0.66146 0.14106,-0.21828 0.25648,-0.27781 0.25648,-0.13229 0,0.14552 -0.11542,0.44318 -0.25648,0.66146 -0.14107,0.21828 -0.25648,0.27781 -0.25648,0.13229 z m -47.468127,-0.80398 c -0.25531,-0.66534 -0.17999,-0.83702 0.13191,-0.30065 0.15443,0.26557 0.22505,0.5386 0.15693,0.60672 -0.0681,0.0681 -0.1981,-0.0696 -0.28884,-0.30607 z m -0.69414,-1.70956 c 0,-0.19403 0.0794,-0.2734 0.17639,-0.17639 0.097,0.097 0.097,0.25577 0,0.35278 -0.097,0.097 -0.17639,0.0176 -0.17639,-0.17639 z m 49.212497,0 c 0,-0.19403 0.0794,-0.2734 0.17639,-0.17639 0.097,0.097 0.097,0.25577 0,0.35278 -0.097,0.097 -0.17639,0.0176 -0.17639,-0.17639 z m -49.720777,-1.74184 c 0.0127,-0.30822 0.0754,-0.37092 0.15985,-0.15985 0.0764,0.19099 0.067,0.4192 -0.0209,0.50712 -0.0879,0.0879 -0.15045,-0.0684 -0.13896,-0.34727 z m 50.249937,-0.11024 c 0,-0.19403 0.0794,-0.2734 0.17639,-0.17639 0.097,0.097 0.097,0.25576 0,0.35278 -0.097,0.097 -0.17639,0.0176 -0.17639,-0.17639 z m -50.630487,-1.11399 c -0.0892,-0.33319 -0.15195,-0.84393 -0.13931,-1.13497 0.0126,-0.29104 0.13194,-0.0647 0.26513,0.50295 0.25795,1.0994 0.14772,1.65314 -0.12582,0.63202 z m 51.068707,-0.34122 c 0.0886,-0.58208 0.20489,-1.10794 0.25834,-1.16858 0.20042,-0.22732 0.0504,1.18982 -0.17975,1.69775 -0.16709,0.3688 -0.1909,0.20844 -0.0786,-0.52917 z M 78.969963,181.5898 c 0,-0.50932 0.0544,-0.71768 0.121,-0.46302 0.0666,0.25466 0.0666,0.67138 0,0.92604 -0.0666,0.25466 -0.121,0.0463 -0.121,-0.46302 z m 51.858327,0 c 0,-0.50932 0.0544,-0.71768 0.121,-0.46302 0.0666,0.25466 0.0666,0.67138 0,0.92604 -0.0666,0.25466 -0.121,0.0463 -0.121,-0.46302 z m -52.095347,-3.175 c 0,-1.0914 0.0467,-1.53789 0.10379,-0.99219 0.0571,0.54571 0.0571,1.43868 0,1.98438 -0.0571,0.5457 -0.10379,0.0992 -0.10379,-0.99219 z m 52.387497,0 c 0,-1.0914 0.0467,-1.53789 0.10379,-0.99219 0.0571,0.54571 0.0571,1.43868 0,1.98438 -0.0571,0.5457 -0.10379,0.0992 -0.10379,-0.99219 z m -52.150477,-2.91042 c 0,-0.50932 0.0544,-0.71768 0.121,-0.46302 0.0666,0.25467 0.0666,0.67138 0,0.92605 -0.0666,0.25466 -0.121,0.0463 -0.121,-0.46303 z m 51.858327,0 c 0,-0.50932 0.0544,-0.71768 0.121,-0.46302 0.0666,0.25467 0.0666,0.67138 0,0.92605 -0.0666,0.25466 -0.121,0.0463 -0.121,-0.46303 z m -0.27439,-1.71979 c 0.005,-0.43656 0.0647,-0.58312 0.13177,-0.32569 0.0671,0.25743 0.0627,0.61462 -0.01,0.79375 -0.0725,0.17913 -0.12736,-0.0315 -0.12197,-0.46806 z M 79.214933,173.6523 c 0,-0.3638 0.06,-0.51263 0.13345,-0.33073 0.0734,0.1819 0.0734,0.47956 0,0.66146 -0.0734,0.1819 -0.13345,0.0331 -0.13345,-0.33073 z m 0.22281,-1.05833 c 0,-0.19403 0.0794,-0.2734 0.17639,-0.17639 0.097,0.097 0.097,0.25576 0,0.35278 -0.097,0.097 -0.17639,0.0176 -0.17639,-0.17639 z m 50.799997,0 c 0,-0.19403 0.0794,-0.2734 0.17639,-0.17639 0.097,0.097 0.097,0.25576 0,0.35278 -0.097,0.097 -0.17639,0.0176 -0.17639,-0.17639 z m -50.535417,-1.05833 c 0,-0.19403 0.0794,-0.27341 0.17639,-0.17639 0.097,0.097 0.097,0.25576 0,0.35277 -0.097,0.097 -0.17639,0.0176 -0.17639,-0.17638 z m 50.270827,0 c 0,-0.19403 0.0794,-0.27341 0.17639,-0.17639 0.097,0.097 0.097,0.25576 0,0.35277 -0.097,0.097 -0.17639,0.0176 -0.17639,-0.17638 z m -49.477077,-2.38125 c 0,-0.19403 0.0794,-0.27341 0.17639,-0.17639 0.097,0.097 0.097,0.25576 0,0.35277 -0.097,0.097 -0.17639,0.0176 -0.17639,-0.17638 z m 48.583727,-0.14253 c -0.25532,-0.66534 -0.18,-0.83702 0.1319,-0.30065 0.15444,0.26557 0.22506,0.5386 0.15693,0.60672 -0.0681,0.0681 -0.1981,-0.0696 -0.28883,-0.30607 z m -1.58521,-3.3632 -0.47599,-0.8599 0.54536,0.66146 c 0.48365,0.58663 0.69842,1.05833 0.48187,1.05833 -0.0414,0 -0.28945,-0.38695 -0.55124,-0.85989 z m -45.278727,0.0661 c 0.0899,-0.14552 0.22306,-0.26458 0.29582,-0.26458 0.0728,0 0.0587,0.11906 -0.0312,0.26458 -0.0899,0.14552 -0.22306,0.26459 -0.29582,0.26459 -0.0728,0 -0.0587,-0.11907 0.0312,-0.26459 z m 34.511927,-0.36115 c -3.29713,-0.88911 -5.30827,-4.33219 -3.38135,-5.78892 2.3167,-1.75139 7.90315,2.47319 6.56841,4.96717 -0.24879,0.46487 -1.70359,1.33246 -1.95357,1.16505 -0.0147,-0.01 -0.56974,-0.16431 -1.23349,-0.3433 z m 0.99353,-3.24898 c 0.20384,-0.5312 -0.56417,-1.15237 -1.42478,-1.15237 -0.75268,0 -0.77092,0.25761 -0.0714,1.00845 0.64042,0.6874 1.2646,0.74745 1.49619,0.14392 z m -0.97733,-0.094 c 0,-0.19403 0.0794,-0.27341 0.17639,-0.17639 0.097,0.097 0.097,0.25576 0,0.35278 -0.097,0.097 -0.17639,0.0176 -0.17639,-0.17639 z m -33.866667,2.64581 c 0.15576,-0.29104 0.34273,-0.52917 0.41549,-0.52917 0.0728,0 0.005,0.23813 -0.1509,0.52917 -0.15577,0.29104 -0.34274,0.52917 -0.4155,0.52917 -0.0728,0 -0.005,-0.23813 0.15091,-0.52917 z m 43.763277,-0.30547 c -0.11697,-0.18925 -0.0726,-0.23364 0.11667,-0.11667 0.305,0.1885 0.40949,0.42214 0.18879,0.42214 -0.0642,0 -0.20163,-0.13746 -0.30546,-0.30547 z m -0.66995,-0.9513 c -0.3291,-0.41965 -0.31975,-0.42901 0.0999,-0.0999 0.44073,0.34565 0.58089,0.56292 0.36312,0.56292 -0.0549,0 -0.2633,-0.20836 -0.46302,-0.46302 z m -42.167287,-0.0662 c 0.0899,-0.14552 0.22306,-0.26458 0.29582,-0.26458 0.0728,0 0.0587,0.11906 -0.0312,0.26458 -0.0899,0.14552 -0.22306,0.26459 -0.29582,0.26459 -0.0728,0 -0.0587,-0.11907 0.0312,-0.26459 z m 0.66146,-0.87654 c 0,-0.0455 0.38695,-0.43249 0.8599,-0.85989 l 0.85989,-0.77711 -0.7771,0.8599 c -0.72437,0.80154 -0.94269,0.98151 -0.94269,0.7771 z m 39.937837,-0.9094 -0.9118,-0.99218 0.99219,0.9118 c 0.92351,0.84868 1.11384,1.07257 0.9118,1.07257 -0.0442,0 -0.4907,-0.44648 -0.99219,-0.99219 z m -38.218047,-1.12447 c 0.0899,-0.14553 0.22306,-0.26459 0.29582,-0.26459 0.0728,0 0.0587,0.11906 -0.0312,0.26459 -0.0899,0.14552 -0.22306,0.26458 -0.29582,0.26458 -0.0728,0 -0.0587,-0.11906 0.0312,-0.26458 z m 37.016397,-0.30547 c -0.11696,-0.18926 -0.0726,-0.23364 0.11668,-0.11667 0.305,0.1885 0.40949,0.42214 0.18879,0.42214 -0.0642,0 -0.20163,-0.13746 -0.30547,-0.30547 z m -35.561187,-0.88516 c 0.34178,-0.3638 0.68094,-0.66146 0.7537,-0.66146 0.0728,0 -0.14734,0.29766 -0.48912,0.66146 -0.34177,0.3638 -0.68093,0.66146 -0.75369,0.66146 -0.0728,0 0.14734,-0.29766 0.48911,-0.66146 z m 34.375807,-0.0661 -0.64143,-0.7276 0.7276,0.64143 c 0.68006,0.59952 0.84894,0.81378 0.64143,0.81378 -0.0474,0 -0.37481,-0.32742 -0.7276,-0.72761 z m -1.46032,-1.19062 -0.50403,-0.59531 0.59531,0.50403 c 0.55945,0.47366 0.71576,0.68659 0.50403,0.68659 -0.0502,0 -0.3181,-0.26789 -0.59531,-0.59531 z m -31.414477,0.045 c 0.32827,-0.39736 1.93857,-1.41043 1.93857,-1.21959 0,0.0617 -0.50601,0.44582 -1.12447,0.8537 -0.61847,0.40789 -0.98481,0.57254 -0.8141,0.36589 z m 30.356017,-0.81348 c -0.11697,-0.18925 -0.0726,-0.23364 0.11667,-0.11667 0.305,0.1885 0.40949,0.42214 0.18879,0.42214 -0.0642,0 -0.20163,-0.13746 -0.30546,-0.30547 z m -1.32292,-0.79375 c -0.11697,-0.18925 -0.0726,-0.23364 0.11668,-0.11667 0.30499,0.1885 0.40948,0.42214 0.18878,0.42214 -0.0642,0 -0.20163,-0.13746 -0.30546,-0.30547 z m -26.168477,-0.2237 c 0.0899,-0.14552 0.22305,-0.26458 0.29581,-0.26458 0.0728,0 0.0587,0.11906 -0.0312,0.26458 -0.0899,0.14552 -0.22305,0.26459 -0.29581,0.26459 -0.0728,0 -0.0587,-0.11907 0.0312,-0.26459 z m 2.77812,-1.45521 c 0.3638,-0.20796 0.84005,-0.37768 1.05834,-0.37714 0.21828,5.3e-4 -0.004,0.17491 -0.4934,0.3875 -1.12669,0.48916 -1.42905,0.48362 -0.56494,-0.0104 z m 20.108327,0.1323 c -0.21828,-0.14107 -0.27781,-0.25648 -0.13229,-0.25648 0.14552,0 0.44318,0.11541 0.66146,0.25648 0.21828,0.14106 0.27781,0.25647 0.13229,0.25647 -0.14552,0 -0.44317,-0.11541 -0.66146,-0.25647 z m -0.97014,-0.44098 c 0.097,-0.097 0.25577,-0.097 0.35278,0 0.097,0.097 0.0176,0.17639 -0.17639,0.17639 -0.19402,0 -0.2734,-0.0794 -0.17639,-0.17639 z m -17.462487,-0.26458 c 0.097,-0.097 0.25576,-0.097 0.35277,0 0.097,0.097 0.0176,0.17639 -0.17638,0.17639 -0.19403,0 -0.27341,-0.0794 -0.17639,-0.17639 z m 0.79375,-0.26458 c 0.097,-0.097 0.25576,-0.097 0.35277,0 0.097,0.097 0.0176,0.17639 -0.17639,0.17639 -0.19402,0 -0.2734,-0.0794 -0.17638,-0.17639 z m 15.081237,0 c 0.097,-0.097 0.25577,-0.097 0.35278,0 0.097,0.097 0.0176,0.17639 -0.17639,0.17639 -0.19402,0 -0.2734,-0.0794 -0.17639,-0.17639 z m -14.160707,-0.26894 c 0.19099,-0.0764 0.41919,-0.067 0.50711,0.0209 0.0879,0.0879 -0.0683,0.15045 -0.34726,0.13896 -0.30823,-0.0127 -0.37092,-0.0754 -0.15985,-0.15985 z m 13.366957,0.004 c 0.097,-0.097 0.25577,-0.097 0.35278,0 0.097,0.097 0.0176,0.1764 -0.17639,0.1764 -0.19402,0 -0.2734,-0.0794 -0.17639,-0.17639 z m -12.523607,-0.19217 c 0,-0.0572 0.18478,-0.17488 0.41062,-0.26155 0.23546,-0.0904 0.34166,-0.046 0.24897,0.10399 -0.15538,0.2514 -0.65959,0.37185 -0.65959,0.15756 z m 11.465277,-0.0724 c 0.097,-0.097 0.25577,-0.097 0.35278,0 0.097,0.097 0.0176,0.17639 -0.17639,0.17639 -0.19403,0 -0.2734,-0.0794 -0.17639,-0.17639 z m -11.200687,-1.13058 c 0,-0.28246 0.10186,-0.57651 0.22636,-0.65345 0.1245,-0.077 0.17015,0.15415 0.10145,0.51355 -0.14923,0.78064 -0.32781,0.85685 -0.32781,0.1399 z m 10.781767,-0.85347 c -0.25466,-0.26678 -0.35854,-0.48506 -0.23083,-0.48506 0.26684,0 0.954,0.76522 0.7977,0.88833 -0.0571,0.045 -0.31221,-0.13648 -0.56687,-0.40327 z M 99.898853,150.9863 c 0.097,-0.097 0.255757,-0.097 0.352777,0 0.097,0.097 0.0176,0.17639 -0.17639,0.17639 -0.194027,0 -0.273397,-0.0794 -0.176387,-0.17639 z m 6.085407,-1.32292 c 0.097,-0.097 0.25577,-0.097 0.35278,0 0.097,0.097 0.0176,0.17639 -0.17639,0.17639 -0.19402,0 -0.2734,-0.0794 -0.17639,-0.17639 z M 86.581493,123.64602 c -0.23847,-0.15411 -0.2711,-0.2581 -0.0818,-0.26053 0.17331,-0.002 0.3887,0.11501 0.47863,0.26053 0.20302,0.32849 0.11143,0.32849 -0.39687,0 z M 114.51204,94.354829 c -0.14359,-0.377084 -0.11319,-0.407475 0.14811,-0.148113 0.18082,0.179476 0.26212,0.39297 0.18066,0.474432 -0.0815,0.08146 -0.22941,-0.06538 -0.32877,-0.326319 z"
         id="path3620" /><path
         style="fill:#dca35d;stroke-width:0.264583"
         d="m 100.70602,149.45835 c -0.0805,-0.20978 -0.0906,-0.59673 -0.0224,-0.85989 0.0832,-0.32098 0.13408,-0.24503 0.15466,0.23072 0.0222,0.5124 0.19589,0.74102 0.62601,0.82387 l 0.59531,0.11466 -0.60361,0.036 c -0.33199,0.0198 -0.66949,-0.13561 -0.74999,-0.34539 z m 3.27182,0.20619 c 0.1819,-0.0734 0.47956,-0.0734 0.66146,0 0.1819,0.0734 0.0331,0.13346 -0.33073,0.13346 -0.3638,0 -0.51263,-0.0601 -0.33073,-0.13346 z m 4.0349,-0.0646 c 0,-0.1319 0.2381,-0.17755 0.5291,-0.10145 0.36141,0.0945 0.8648,-0.16491 1.58827,-0.81852 0.58253,-0.52629 1.13365,-0.95688 1.22471,-0.95688 0.0911,0 -0.35577,0.47136 -0.99295,1.04748 -1.05973,0.95817 -2.34913,1.4134 -2.34913,0.82937 z m -5.72692,-2.27373 c -7.9e-4,-1.30969 0.0439,-1.87883 0.0994,-1.26475 0.0555,0.61407 0.0562,1.68563 0.002,2.38125 -0.0547,0.69561 -0.10008,0.19319 -0.10089,-1.1165 z m 3.65203,1.71979 c 0,-0.3638 0.0601,-0.51263 0.13345,-0.33073 0.0734,0.1819 0.0734,0.47956 0,0.66146 -0.0734,0.1819 -0.13345,0.0331 -0.13345,-0.33073 z m -0.99079,-4.36562 c 2.6e-4,-2.61938 0.0399,-3.65515 0.088,-2.30172 0.0481,1.35342 0.0479,3.49655 -5.3e-4,4.7625 -0.0484,1.26594 -0.0878,0.15859 -0.0875,-2.46078 z m 3.33026,4.10104 c 0,-0.19403 0.0794,-0.2734 0.17639,-0.17639 0.097,0.097 0.097,0.25576 0,0.35278 -0.097,0.097 -0.17639,0.0176 -0.17639,-0.17639 z m -4.69578,-1.45521 c 0.003,-0.58208 0.0571,-0.78905 0.12041,-0.45994 0.0633,0.32912 0.0609,0.80537 -0.005,1.05834 -0.0662,0.25296 -0.11801,-0.0163 -0.11507,-0.5984 z m -3.24172,0.28489 c 0,-0.20712 -0.31117,-0.77267 -0.691487,-1.25678 l -0.6915,-0.88019 0.82379,0.86407 c 0.715797,0.7508 1.092537,1.64947 0.691487,1.64947 -0.0728,0 -0.13229,-0.16946 -0.13229,-0.37657 z m 7.14375,0.11199 c 0,-0.19403 0.0794,-0.27341 0.17639,-0.17639 0.097,0.097 0.097,0.25576 0,0.35278 -0.097,0.097 -0.17639,0.0176 -0.17639,-0.17639 z m 1.45521,-0.26459 c 0.0899,-0.14552 0.22305,-0.26458 0.29581,-0.26458 0.0728,0 0.0587,0.11906 -0.0312,0.26458 -0.0899,0.14552 -0.22305,0.26459 -0.29581,0.26459 -0.0728,0 -0.0587,-0.11907 0.0312,-0.26459 z m 0.39687,-0.61196 c 0,-0.0455 0.38696,-0.43248 0.8599,-0.85989 l 0.8599,-0.77711 -0.77711,0.8599 c -0.72437,0.80154 -0.94269,0.98151 -0.94269,0.7771 z m 4.49792,-0.31408 c 0.3638,-0.20797 0.78052,-0.37812 0.92604,-0.37812 0.14552,0 -0.0331,0.17015 -0.39687,0.37812 -0.3638,0.20797 -0.78052,0.37812 -0.92604,0.37812 -0.14553,0 0.0331,-0.17015 0.39687,-0.37812 z m -7.58396,-1.98437 c 0,-1.09141 0.0467,-1.53789 0.10379,-0.99219 0.0571,0.5457 0.0571,1.43867 0,1.98437 -0.0571,0.54571 -0.10379,0.0992 -0.10379,-0.99218 z m 2.29229,1.05833 c 0.15576,-0.29104 0.34274,-0.52917 0.4155,-0.52917 0.0728,0 0.005,0.23813 -0.15091,0.52917 -0.15576,0.29104 -0.34274,0.52917 -0.4155,0.52917 -0.0728,0 -0.005,-0.23813 0.15091,-0.52917 z m 6.61459,0.41549 c 0,-0.0728 0.23812,-0.25973 0.52916,-0.41549 0.29105,-0.15576 0.52917,-0.22367 0.52917,-0.15091 0,0.0728 -0.23812,0.25973 -0.52917,0.41549 -0.29104,0.15576 -0.52916,0.22367 -0.52916,0.15091 z m -19.182287,-1.49604 c -6.63791,-2.92206 -8.03771,-4.01137 -9.86243,-7.67479 -0.6095,-1.22368 -1.17398,-2.58206 -1.25439,-3.01862 -0.0804,-0.43656 0.14736,-0.0308 0.50616,0.9016 1.62489,4.22274 3.84084,6.35939 9.13053,8.80379 1.54167,0.71242 3.16023,1.46168 3.59679,1.66502 1.81134,0.84367 0.0794,0.28971 -2.11666,-0.677 z m 7.317807,0.55138 c 0,-0.3638 0.0601,-0.51263 0.13346,-0.33073 0.0734,0.1819 0.0734,0.47956 0,0.66146 -0.0734,0.1819 -0.13346,0.0331 -0.13346,-0.33073 z m 13.84885,-0.26458 c 0.0899,-0.14552 0.22305,-0.26458 0.29581,-0.26458 0.0728,0 0.0587,0.11906 -0.0312,0.26458 -0.0899,0.14552 -0.22306,0.26458 -0.29582,0.26458 -0.0728,0 -0.0587,-0.11906 0.0312,-0.26458 z m -15.27626,-0.68494 c -0.10735,-0.51136 -1.14276,-1.90873 -2.766397,-3.73349 -1.42716,-1.60394 -3.17003,-3.61743 -3.87304,-4.47443 -0.70302,-0.857 -2.14015,-2.45115 -3.19363,-3.54256 -1.05349,-1.0914 -2.18518,-2.46062 -2.51487,-3.04271 l -0.59944,-1.05833 0.61761,0.79375 c 0.33968,0.43656 1.35135,1.56766 2.24814,2.51354 0.8968,0.94589 1.90904,2.07594 2.24943,2.51123 0.34038,0.43528 2.03296,2.39542 3.76129,4.35585 3.560787,4.039 4.487877,5.32247 4.343297,6.01291 -0.0689,0.32894 -0.15518,0.22257 -0.27239,-0.33576 z m 8.52219,-0.77027 c 0.78716,-0.87312 1.48412,-1.64703 1.54879,-1.71979 0.0647,-0.0728 -0.008,0.10583 -0.16248,0.39687 -0.15404,0.29105 -0.85099,1.06495 -1.54879,1.7198 l -1.26872,1.19062 z m 1.9251,0.39495 c 0.38102,-0.51037 0.99717,-1.58194 1.36922,-2.38124 0.37205,-0.79931 0.67762,-1.29136 0.67904,-1.09345 0.004,0.55783 -1.57807,3.39066 -2.19195,3.92486 -0.4099,0.35669 -0.37347,0.24259 0.14369,-0.45017 z m -9.32624,0.26651 c 0,-0.19403 0.0794,-0.2734 0.17639,-0.17639 0.097,0.097 0.097,0.25576 0,0.35278 -0.097,0.097 -0.17639,0.0176 -0.17639,-0.17639 z m 16.53646,-1.30819 c 0.72761,-0.81617 1.59418,-1.83799 1.92571,-2.27069 0.43561,-0.56854 0.52223,-0.61691 0.31231,-0.1744 -0.15977,0.33679 -1.02634,1.3586 -1.92571,2.2707 -1.57712,1.59943 -1.58822,1.60562 -0.31231,0.17439 z m -17.08715,-0.0667 c -0.47124,-1.13769 -4.593357,-6.27675 -8.891447,-11.085 -4.83776,-5.41197 -5.76906,-7.2651 -6.01412,-11.96707 l -0.12656,-2.42826 0.24018,2.11667 c 0.55427,4.88444 1.45449,6.75276 5.37597,11.15719 6.22492,6.99155 10.396987,12.44548 9.900317,12.94215 -0.0699,0.0699 -0.2878,-0.26121 -0.48434,-0.73568 z m 3.74658,-1.16071 c 0.0127,-0.30823 0.0754,-0.37092 0.15985,-0.15985 0.0764,0.19099 0.067,0.41919 -0.0209,0.50712 -0.0879,0.0879 -0.15045,-0.0684 -0.13897,-0.34727 z m 5.8226,-0.24254 c 0.0276,-0.50117 0.46851,-1.3451 0.48387,-0.92604 0.008,0.21828 -0.10087,0.57547 -0.24194,0.79375 -0.14106,0.21828 -0.24994,0.27782 -0.24193,0.13229 z m -5.80114,-1.889 c -0.0861,-2.76401 -2.05552,-10.46802 -2.96885,-11.61342 -0.2893,-0.36281 -0.79719,-1.71112 -0.64455,-1.71112 1.1115,0 4.12372,10.98453 3.77287,13.75834 -0.0944,0.7465 -0.12534,0.6624 -0.15947,-0.4338 z m -1.81767,-1.61217 c -0.64756,-4.40637 -2.9364,-9.81212 -6.975677,-16.47512 -2.29349,-3.78322 -3.41704,-5.96194 -3.41096,-6.61433 0.002,-0.21828 0.29459,0.31076 0.65013,1.17564 0.35553,0.86488 1.05419,2.17457 1.55255,2.91042 1.05464,1.55717 3.05456,4.89707 3.73212,6.23269 3.112607,6.13558 3.785297,7.82851 4.494637,11.31144 0.24456,1.20083 0.40701,2.51052 0.36099,2.91042 -0.046,0.3999 -0.22773,-0.25312 -0.40379,-1.45116 z m 8.12532,1.78138 c 0,-0.19402 0.0794,-0.2734 0.17639,-0.17639 0.097,0.097 0.097,0.25577 0,0.35278 -0.097,0.097 -0.17639,0.0176 -0.17639,-0.17639 z m 1.85209,0 c 0,-0.19402 0.0794,-0.2734 0.17639,-0.17639 0.097,0.097 0.097,0.25577 0,0.35278 -0.097,0.097 -0.17639,0.0176 -0.17639,-0.17639 z m 8.59308,-1.77 c 1.51903,-2.94454 1.85412,-5.3837 1.31982,-9.60708 -0.42791,-3.38235 -3.43956,-10.4981 -5.78752,-13.67441 -0.44995,-0.60868 -1.35387,-1.89879 -2.00872,-2.86689 -0.65484,-0.96811 -1.57757,-2.23753 -2.05052,-2.82094 -0.47294,-0.58341 -0.85989,-1.1867 -0.85989,-1.34064 0,-0.35346 2.83184,3.39482 5.00881,6.62976 4.75777,7.06998 7.09132,14.68616 6.10052,19.91066 -0.25909,1.36617 -1.93717,5.13475 -2.41901,5.43255 -0.13033,0.0805 0.1831,-0.66781 0.69651,-1.66301 z m -10.13881,0.71167 c 0,-0.3638 0.0601,-0.51263 0.13346,-0.33073 0.0734,0.1819 0.0734,0.47956 0,0.66146 -0.0734,0.1819 -0.13346,0.0331 -0.13346,-0.33073 z m 1.85209,-0.26458 c 0,-0.36381 0.06,-0.51263 0.13345,-0.33073 0.0734,0.1819 0.0734,0.47955 0,0.66146 -0.0734,0.1819 -0.13345,0.0331 -0.13345,-0.33073 z m -1.66779,-3.6023 c 0.12418,-3.91183 -0.21306,-5.25976 -2.73951,-10.94979 -1.24149,-2.79609 -1.7235,-3.65391 -4.24073,-7.54732 -1.41224,-2.18431 -2.3358,-3.82976 -2.14957,-3.82976 0.1491,0 3.9019,5.8716 5.07321,7.9375 1.16529,2.05528 3.31813,6.99384 3.99368,9.16141 0.51383,1.64866 0.65511,7.58866 0.19152,8.05225 -0.12416,0.12416 -0.18193,-1.14449 -0.1286,-2.82429 z m 1.95732,1.61792 c 0.003,-0.58208 0.0571,-0.78905 0.1204,-0.45993 0.0633,0.32911 0.0609,0.80536 -0.005,1.05833 -0.0662,0.25296 -0.11801,-0.0163 -0.11507,-0.5984 z m 0.0775,-2.3151 c -0.057,-0.1819 -0.17744,-1.17235 -0.26757,-2.20099 -0.0901,-1.02865 -0.34539,-2.51693 -0.56725,-3.30729 -0.68315,-2.43372 -0.70191,-2.5627 -0.26277,-1.80694 0.51699,0.88977 1.15944,3.88511 1.28524,5.9923 0.0948,1.58876 0.0328,2.02603 -0.18765,1.32292 z m -30.701047,-2.55738 c -0.16493,-1.42107 0.25347,-4.74924 0.55868,-4.44403 0.065,0.065 -0.0139,0.69951 -0.17532,1.41005 -0.16752,0.7374 -0.21912,2.00163 -0.12022,2.94552 0.0953,0.90951 0.11595,1.65365 0.0459,1.65365 -0.0701,0 -0.20912,-0.70434 -0.30903,-1.56519 z m 3.93642,-3.86703 c -0.24135,-0.36834 -0.38666,-0.72186 -0.32292,-0.78561 0.0637,-0.0637 0.32473,0.23764 0.57996,0.66972 0.56501,0.95647 0.35559,1.05089 -0.25704,0.11589 z m -3.01297,-1.71153 c 0,-0.19403 0.0794,-0.2734 0.17639,-0.17639 0.097,0.097 0.097,0.25576 0,0.35278 -0.097,0.097 -0.17639,0.0176 -0.17639,-0.17639 z m 2.01706,-0.4071 c -0.25531,-0.66535 -0.18,-0.83703 0.13191,-0.30066 0.15443,0.26557 0.22505,0.5386 0.15693,0.60672 -0.0681,0.0681 -0.1981,-0.0696 -0.28884,-0.30606 z m 14.205457,-0.90413 c -0.40942,-0.72117 -1.705877,-2.89406 -2.881027,-4.82864 -3.95304,-6.50768 -4.77283,-8.99877 -4.11795,-12.51325 0.1467,-0.7873 0.1968,-0.41462 0.19562,1.4552 -0.002,3.26243 0.728,5.15156 4.30069,11.12877 2.779897,4.65085 3.567287,6.06915 3.369357,6.06915 -0.0673,0 -0.45727,-0.59005 -0.86669,-1.31123 z m 11.34749,0.1148 c -0.3166,-0.65165 -0.52007,-1.18482 -0.45216,-1.18482 0.17924,0 1.24833,2.1491 1.12864,2.26879 -0.0555,0.0555 -0.35988,-0.43232 -0.67648,-1.08397 z m -25.982507,-0.39107 c 0,-0.19403 0.0794,-0.2734 0.17639,-0.17639 0.097,0.097 0.097,0.25576 0,0.35278 -0.097,0.097 -0.17639,0.0176 -0.17639,-0.17639 z M 111.70474,122.565 c -0.16243,-0.30351 -0.2455,-0.60166 -0.18458,-0.66258 0.0609,-0.0609 0.2466,0.18741 0.41264,0.55183 0.36461,0.80024 0.18708,0.88645 -0.22806,0.11075 z m -0.86974,-1.49869 c -0.82588,-1.3732 -1.49264,-2.73905 -1.26991,-2.60139 0.28753,0.17771 1.68766,2.79982 1.49501,2.79982 -0.0582,0 -0.15946,-0.0893 -0.2251,-0.19843 z m -2.56976,-4.36563 c -0.47351,-0.76398 -1.58225,-2.46062 -2.46385,-3.77031 -2.59562,-3.85601 -3.89786,-7.63406 -3.83033,-11.1125 l 0.0359,-1.852087 0.18663,2.381257 c 0.34788,4.43849 1.40329,6.86275 5.817,13.36145 0.58856,0.8666 1.36906,2.38125 1.22706,2.38125 -0.0613,0 -0.49893,-0.62507 -0.97246,-1.38906 z M 87.660673,116.3479 c 0.0127,-0.30822 0.0754,-0.37092 0.15985,-0.15985 0.0764,0.191 0.067,0.4192 -0.0209,0.50712 -0.0879,0.0879 -0.15045,-0.0683 -0.13896,-0.34727 z m 0.24369,-0.90399 c 0,-0.19403 0.0794,-0.2734 0.17639,-0.17639 0.097,0.097 0.097,0.25576 0,0.35278 -0.097,0.097 -0.17639,0.0176 -0.17639,-0.17639 z m 0.27269,-0.66146 c 0,-0.14552 0.11542,-0.44318 0.25648,-0.66146 0.14107,-0.21828 0.25648,-0.27781 0.25648,-0.13229 0,0.14552 -0.11541,0.44318 -0.25648,0.66146 -0.14106,0.21828 -0.25648,0.27781 -0.25648,0.13229 z m 5.56904,-1.08038 c 0.0127,-0.30822 0.0754,-0.37092 0.15985,-0.15985 0.0764,0.19099 0.067,0.4192 -0.0209,0.50712 -0.0879,0.0879 -0.15045,-0.0684 -0.13896,-0.34727 z m -4.78339,-0.63941 c 0.15576,-0.29104 0.34273,-0.52917 0.41549,-0.52917 0.0728,0 0.005,0.23813 -0.15091,0.52917 -0.15576,0.29104 -0.34273,0.52917 -0.41549,0.52917 -0.0728,0 -0.005,-0.23813 0.15091,-0.52917 z m 4.5188,-0.94809 c 0.0127,-0.30822 0.0754,-0.37092 0.15986,-0.15985 0.0764,0.19099 0.067,0.4192 -0.0209,0.50712 -0.0879,0.0879 -0.15046,-0.0684 -0.13897,-0.34727 z m -3.06359,-0.90399 c 0.56839,-0.58209 1.09296,-1.05834 1.16572,-1.05834 0.0728,0 -0.33275,0.47625 -0.90114,1.05834 -0.56839,0.58208 -1.09297,1.05833 -1.16573,1.05833 -0.0728,0 0.33276,-0.47625 0.90115,-1.05833 z m 12.460457,-0.33073 c -0.72156,-1.23177 -1.55893,-3.1262 -1.42961,-3.23429 0.0449,-0.0375 0.57116,0.92784 1.16946,2.14527 1.18776,2.4169 1.29089,2.84856 0.26015,1.08902 z m -9.661447,-0.0882 c 0.0127,-0.30822 0.0754,-0.37092 0.15985,-0.15985 0.0764,0.191 0.067,0.4192 -0.0209,0.50712 -0.0879,0.0879 -0.15045,-0.0684 -0.13896,-0.34727 z m -1.21151,-0.90399 c 0.0899,-0.14552 0.22305,-0.26458 0.29581,-0.26458 0.0728,0 0.0587,0.11906 -0.0312,0.26458 -0.0899,0.14552 -0.22305,0.26458 -0.29581,0.26458 -0.0728,0 -0.0587,-0.11906 0.0312,-0.26458 z m 9.149007,-3.06476 c 0.0127,-0.30822 0.0754,-0.37092 0.15985,-0.15985 0.0764,0.191 0.067,0.4192 -0.0209,0.50712 -0.0879,0.0879 -0.15045,-0.0684 -0.13896,-0.34727 z m 11.29464,-0.49113 c -1.04399,-1.2589 -2.05186,-3.10664 -2.02918,-3.72015 0.0158,-0.42855 0.0579,-0.40307 0.22128,0.134 0.31599,1.03882 0.97417,2.16551 1.85374,3.17329 0.44452,0.50932 0.8085,1.01534 0.80884,1.12448 8e-4,0.29512 -0.0661,0.23935 -0.85468,-0.71162 z m -11.66693,-0.91309 c -0.0978,-0.48886 -0.16472,-1.14184 -0.14878,-1.45107 0.016,-0.30923 0.13442,-0.0265 0.26329,0.62838 0.12886,0.65485 0.19581,1.30783 0.14877,1.45108 -0.047,0.14324 -0.16551,-0.13953 -0.26328,-0.62839 z m -5.953627,0.10336 c -0.004,-0.29105 0.0945,-0.7673 0.21962,-1.05834 0.28972,-0.67422 0.28972,0.0214 0,0.92604 -0.1703,0.53174 -0.21337,0.55769 -0.21962,0.1323 z m 0.50295,-1.85209 c 0,-0.14552 0.17016,-0.56224 0.37812,-0.92604 0.20797,-0.3638 0.37813,-0.5424 0.37813,-0.39687 0,0.14552 -0.17016,0.56223 -0.37813,0.92604 -0.20796,0.3638 -0.37812,0.54239 -0.37812,0.39687 z m 5.069717,-1.19062 c 0,-0.50933 0.0544,-0.71769 0.121,-0.46302 0.0665,0.25466 0.0665,0.67138 0,0.92604 -0.0666,0.25466 -0.121,0.0463 -0.121,-0.46302 z m -3.770097,-1.25731 c 0.31378,-0.47324 0.83012,-0.98725 1.14742,-1.14224 l 0.57692,-0.281803 -0.57611,0.480783 c -0.31686,0.26443 -0.83321,0.77843 -1.14743,1.14223 l -0.57132,0.66146 z m 13.577577,-0.59478 c 0,-0.800363 0.0496,-1.127785 0.11022,-0.727602 0.0606,0.400182 0.0606,1.055032 0,1.455212 -0.0606,0.40018 -0.11022,0.0728 -0.11022,-0.72761 z m -9.60429,-0.749651 c 0,-0.169774 -0.38695,-0.32652 -0.859887,-0.348324 -0.84569,-0.03899 -0.84735,-0.04151 -0.10006,-0.152976 0.758327,-0.113108 1.483227,0.28671 1.140747,0.629181 -0.0994,0.0994 -0.1808,0.0419 -0.1808,-0.127881 z m 1.62928,-0.573264 c 0,-0.363802 0.0601,-0.51263 0.13345,-0.330729 0.0734,0.181901 0.0734,0.479557 0,0.661458 -0.0734,0.181901 -0.13345,0.03307 -0.13345,-0.330729 z m 8.17708,-0.870141 c -0.009,-0.260296 0.42971,-0.920387 0.97541,-1.466869 0.54571,-0.546481 0.67132,-0.631168 0.27915,-0.188192 -0.39217,0.442976 -0.83111,1.103067 -0.97541,1.466869 -0.18994,0.478843 -0.26701,0.530799 -0.27915,0.188192 z m -7.95427,-0.188192 c 0,-0.194028 0.0794,-0.273403 0.17639,-0.176389 0.097,0.09701 0.097,0.255764 0,0.352778 -0.097,0.09701 -0.17639,0.01764 -0.17639,-0.176389 z m 0.26458,-0.895084 c 0,-0.283947 0.78724,-1.750749 0.93963,-1.750749 0.0728,0 -0.0645,0.386953 -0.30503,0.859895 -0.49112,0.965703 -0.6346,1.167113 -0.6346,0.890854 z m 1.05833,-2.115228 c 0,-0.05494 0.20836,-0.263301 0.46303,-0.46302 0.41964,-0.329108 0.429,-0.31975 0.0999,0.09989 -0.34564,0.44073 -0.56292,0.580888 -0.56292,0.363126 z m 9.87778,-0.07649 c 0.097,-0.09701 0.25577,-0.09701 0.35278,0 0.097,0.09701 0.0176,0.176389 -0.17639,0.176389 -0.19403,0 -0.2734,-0.07938 -0.17639,-0.176389 z m 0.28342,-1.187408 c -0.11697,-0.189256 -0.0726,-0.233643 0.11667,-0.116677 0.16801,0.103833 0.30547,0.241292 0.30547,0.305464 0,0.2207 -0.23364,0.116212 -0.42214,-0.188787 z m -8.22092,-0.135508 c 0.097,-0.09701 0.25577,-0.09701 0.35278,0 0.097,0.09701 0.0176,0.176389 -0.17639,0.176389 -0.19403,0 -0.2734,-0.07937 -0.17639,-0.176389 z m 0.79375,-0.264584 c 0.097,-0.09701 0.25577,-0.09701 0.35278,0 0.097,0.09701 0.0176,0.176389 -0.17639,0.176389 -0.19403,0 -0.2734,-0.07937 -0.17639,-0.176389 z m 6.61458,0 c 0.097,-0.09701 0.25577,-0.09701 0.35278,0 0.097,0.09701 0.0176,0.176389 -0.17639,0.176389 -0.19402,0 -0.2734,-0.07937 -0.17639,-0.176389 z m -5.69405,-0.268935 c 0.191,-0.07643 0.4192,-0.06703 0.50712,0.02089 0.0879,0.08792 -0.0684,0.150453 -0.34727,0.138965 -0.30822,-0.01269 -0.37091,-0.07539 -0.15985,-0.159853 z m 4.9003,0.0044 c 0.097,-0.09701 0.25577,-0.09701 0.35278,0 0.097,0.09701 0.0176,0.176388 -0.17639,0.176388 -0.19402,0 -0.2734,-0.07937 -0.17639,-0.176388 z m -2.79543,-0.279946 c 0.47555,-0.05889 1.18992,-0.05767 1.5875,0.0027 0.39758,0.06037 0.008,0.108551 -0.86463,0.107066 -0.87313,-0.0015 -1.19842,-0.05088 -0.72287,-0.109766 z"
         id="path3618" /><path
         style="fill:#fad606;stroke-width:0.264583"
         d="m 90.311453,138.77776 c 0.025,-0.53709 0.0153,-1.09559 -0.0215,-1.24111 -0.38335,-1.51556 0.0349,-4.15524 0.6401,-4.03956 0.35439,0.0677 0.78823,0.0343 0.96408,-0.0744 0.93116,-0.57549 4.2124,2.9394 4.2124,4.51236 0,1.14028 -1.74162,1.98453 -3.24028,1.57073 -0.54106,-0.14939 -1.21583,-0.14849 -1.7417,0.002 l -0.85845,0.2462 0.0454,-0.97652 z m 9.903377,-4.53659 c -0.1164,-0.18834 -0.757627,-0.22781 -1.862307,-0.11464 l -1.68477,0.17261 -2.04044,-2.08541 c -1.12225,-1.14698 -2.20636,-2.50213 -2.40916,-3.01146 -0.20279,-0.50932 -0.5122,-1.21341 -0.68758,-1.56465 -0.25149,-0.50365 -0.24898,-0.66207 0.0119,-0.74965 0.1819,-0.0611 0.33073,-0.52519 0.33073,-1.03137 v -0.92032 l 3.40053,0.0561 c 1.8703,0.0308 3.52243,-0.0193 3.6714,-0.11133 0.79828,-0.49336 1.948147,2.32778 2.071827,5.08314 0.0498,1.10893 0.15187,2.38839 0.22688,2.84326 0.14661,0.88917 -0.66586,2.02126 -1.02897,1.43374 z m -3.050007,-0.39307 c 0,-0.0642 -0.11906,-0.19027 -0.26458,-0.2802 -0.14552,-0.0899 -0.26458,-0.0374 -0.26458,0.11667 0,0.15411 0.11906,0.2802 0.26458,0.2802 0.14552,0 0.26458,-0.0525 0.26458,-0.11667 z m 6.349997,-6.07312 c -0.80036,-1.60207 -2.16341,-4.09497 -3.02898,-5.53977 l -1.573777,-2.62692 0.63785,-0.51649 c 0.43343,-0.35098 0.870907,-0.46989 1.365077,-0.37106 0.39998,0.08 0.7853,0.0515 0.85627,-0.0633 0.17971,-0.29078 1.63707,-0.14611 3.34139,0.33171 0.36948,0.10359 1.00286,0.0625 1.4075,-0.0914 0.79721,-0.3031 0.87848,-0.25562 1.96125,1.14594 0.32432,0.41981 0.58967,1.04908 0.58967,1.39837 0,0.3493 0.16429,0.89879 0.36509,1.22109 0.35411,0.5684 0.35999,0.99103 0.0918,6.60528 l -0.06,1.25677 h -1.76389 c -1.16127,0 -1.81094,-0.11299 -1.90161,-0.33073 -0.10346,-0.24845 -0.22413,-0.22822 -0.48507,0.0813 -0.29951,0.3553 -0.54777,0.0109 -1.80256,-2.50081 z m 11.64167,0.0589 c 0,-0.14477 -0.14883,-0.21337 -0.33073,-0.15244 -0.20015,0.067 -0.60905,-0.54037 -1.03564,-1.53842 -0.38769,-0.90707 -1.27958,-2.64364 -1.98196,-3.85905 -4.60856,-7.97469 -4.63689,-7.36889 0.34237,-7.32201 2.04447,0.0192 3.86235,-0.0547 4.03972,-0.16431 0.18221,-0.11261 0.55097,0.007 0.84769,0.27597 0.55433,0.50167 1.40075,0.75781 1.1469,0.34707 -0.082,-0.13274 0.007,-0.23953 0.19718,-0.2373 0.41158,0.005 1.25946,0.51335 0.87551,0.52511 -0.17639,0.005 -0.17639,0.0729 0,0.20249 0.59014,0.43357 1.25456,1.92211 0.77597,1.73845 -0.37158,-0.14259 -0.39582,-0.0853 -0.1546,0.36541 0.15733,0.29397 0.22086,0.59969 0.14118,0.67937 -0.20244,0.20244 -0.31715,4.95178 -0.1196,4.95178 0.24651,0 -0.001,4.06718 -0.26464,4.34505 -0.14104,0.14877 -0.82799,0.13456 -1.76003,-0.0364 -0.84078,-0.15423 -1.64776,-0.20785 -1.79328,-0.11916 -0.45115,0.27498 -0.92604,0.27416 -0.92604,-0.002 z m 4.40972,-10.71427 c -0.097,-0.097 -0.25576,-0.097 -0.35278,0 -0.097,0.097 -0.0176,0.17639 0.17639,0.17639 0.19403,0 0.2734,-0.0794 0.17639,-0.17639 z m -20.813887,1.76389 c 0,-0.14552 0.11906,-0.26458 0.26458,-0.26458 0.14553,0 0.26459,0.11906 0.26459,0.26458 0,0.14552 -0.11906,0.26459 -0.26459,0.26459 -0.14552,0 -0.26458,-0.11907 -0.26458,-0.26459 z"
         id="path3616" /><path
         style="fill:#faaf05;stroke-width:0.264583"
         d="m 90.964593,141.34482 c 0.0803,-0.12996 0.0497,-0.24541 -0.068,-0.25654 -2.20989,-0.209 -2.5953,-1.03507 -2.5953,-5.5627 v -3.80977 l 1.14735,-0.15311 c 1.22032,-0.16286 2.394,0.45072 3.61515,1.88993 l 0.52917,0.62366 -0.68313,-0.42959 c -0.37572,-0.23627 -0.8299,-0.33888 -1.00929,-0.22801 -0.17939,0.11087 -0.61613,0.14615 -0.97052,0.0784 -0.60517,-0.11568 -1.02345,2.524 -0.64009,4.03956 0.0368,0.14552 0.0466,0.70266 0.0217,1.2381 l -0.0452,0.97351 0.88075,-0.24319 c 0.53775,-0.14848 1.21415,-0.14757 1.73681,0.002 1.68416,0.48301 3.35906,-0.52347 3.15742,-1.89735 l -0.12229,-0.83322 0.64528,0.77679 c 1.53712,1.85031 2.00052,3.55485 0.96646,3.55485 -0.20132,0 -0.36604,0.0927 -0.36604,0.20597 0,0.11328 -0.44648,0.17457 -0.99218,0.13619 -0.54571,-0.0384 -1.5875,-0.11154 -2.31511,-0.16259 -0.7276,-0.0511 -1.70903,-0.006 -2.18094,0.10011 -0.48919,0.10999 -0.79525,0.0913 -0.71199,-0.0434 z m 8.58953,-4.05071 c -0.004,-0.27891 -0.0795,-0.43568 -0.16679,-0.34838 -0.0873,0.0873 -0.57632,-0.22027 -1.08671,-0.6835 -1.01284,-0.91927 -2.86551,-3.18462 -2.12292,-2.59579 0.32368,0.25666 0.45795,0.27147 0.45795,0.0505 0,-0.17193 0.13178,-0.23115 0.29284,-0.13162 0.20465,0.12649 0.18474,0.257 -0.0661,0.43344 -0.23426,0.16475 0.2549,0.19733 1.40799,0.0938 1.14987,-0.10325 1.828957,-0.0583 1.944487,0.12859 0.35707,0.57775 1.1745,-0.54377 1.04499,-1.43374 -0.33536,-2.30473 -0.43586,-4.33985 -0.22086,-4.47272 0.37554,-0.2321 2.27222,4.49206 2.06528,5.14409 -0.10762,0.33908 -0.0734,0.48928 0.0886,0.38913 0.33982,-0.21002 0.65544,1.44993 0.43937,2.31082 -0.19487,0.77643 -0.83017,1.09304 -1.34159,0.66861 -0.26739,-0.22192 -0.45711,-0.22373 -0.71841,-0.007 -0.19529,0.16207 -0.43342,0.21634 -0.52917,0.12059 -0.0958,-0.0958 -0.17409,-0.0206 -0.17409,0.16697 0,0.26456 -0.0842,0.27116 -0.37552,0.0294 -0.29663,-0.24618 -0.4339,-0.2113 -0.653407,0.16604 -0.26374,0.45337 -0.2783,0.45187 -0.28594,-0.0294 z m 8.784437,-3.65123 c 0.19894,-0.1345 -0.0415,-0.16231 -0.59041,-0.0683 -1.84192,0.3155 -3.43835,-1.56856 -2.62184,-3.09423 0.27699,-0.51756 0.76976,-0.65825 0.76976,-0.21976 0,0.15025 0.7717,0.26458 1.78594,0.26458 h 1.78594 l 0.06,-1.25677 c 0.27108,-5.67527 0.26526,-6.03209 -0.1082,-6.63027 -0.20981,-0.33605 -0.34433,-0.79551 -0.29894,-1.02102 0.077,-0.38253 0.88412,1.31486 2.61323,5.49559 0.65936,1.59423 1.00598,3.10659 1.16295,5.07413 0.0637,0.79876 -0.75058,1.99429 -1.03971,1.52647 -0.0944,-0.15275 -0.35023,-0.27771 -0.56851,-0.27771 -0.21828,0 -0.32419,0.1176 -0.23535,0.26134 0.10062,0.16281 -0.44401,0.24466 -1.44451,0.21709 -0.98993,-0.0273 -1.47726,-0.1313 -1.27038,-0.27116 z m 14.93836,-1.29838 c -0.17112,-0.34366 -0.70066,-0.43993 -2.64583,-0.48103 -1.33754,-0.0283 -2.87501,-0.075 -3.4166,-0.10375 -0.69126,-0.0368 -1.01417,0.0672 -1.08354,0.34874 -0.0763,0.30984 -0.14889,0.28071 -0.3189,-0.12806 -0.12105,-0.29104 -0.30734,-0.58909 -0.41397,-0.66233 -0.30227,-0.20761 -0.89763,-3.40004 -0.6755,-3.62216 0.10895,-0.10896 0.29423,-0.0426 0.41173,0.14756 0.22901,0.37055 0.52429,0.38377 0.94822,0.0425 0.14552,-0.11717 0.9525,-0.0865 1.79328,0.0681 0.93202,0.17138 1.61899,0.18586 1.76003,0.0371 0.26344,-0.27787 0.51115,-4.34505 0.26464,-4.34505 -0.19755,0 -0.0828,-4.74934 0.1196,-4.95178 0.0797,-0.0797 0.0322,-0.35545 -0.10556,-0.61281 -0.18769,-0.3507 -0.13766,-0.5112 0.19968,-0.64065 0.24757,-0.095 0.36835,-0.091 0.26841,0.009 -0.0999,0.0999 0.0431,0.46752 0.3179,0.81685 0.65777,0.83623 2.03437,4.17367 2.2734,5.5117 0.10399,0.58208 0.30286,1.20195 0.44194,1.37748 0.13907,0.17552 0.18234,0.43324 0.0961,0.57271 -0.0862,0.13946 -0.007,0.31387 0.17566,0.38757 0.20052,0.0808 0.14869,0.14229 -0.13064,0.15489 -0.50104,0.0226 -0.63566,0.44842 -0.18885,0.59735 0.17326,0.0578 0.2463,1.16143 0.19844,2.99861 -0.0445,1.70819 -0.16397,2.73002 -0.28968,2.47758 z m -18.70377,-2.08389 c 0,-0.19403 0.0794,-0.27341 0.17639,-0.17639 0.097,0.097 0.097,0.25576 0,0.35278 -0.097,0.097 -0.17639,0.0176 -0.17639,-0.17639 z m -13.398027,-1.9222 c -0.8923,-0.9617 -1.78365,-2.31114 -1.52659,-2.31114 0.0928,0 -0.0397,-0.31824 -0.29457,-0.70721 -0.52955,-0.80821 -0.62043,-2.69177 -0.14408,-2.98617 0.17562,-0.10854 1.47177,-0.21625 2.88035,-0.23936 1.40858,-0.0231 2.68011,-0.0455 2.82563,-0.0496 0.14552,-0.004 0.60467,0.073 1.02033,0.17152 0.47055,0.11155 0.82754,0.063 0.94599,-0.12866 0.22045,-0.35669 1.13398,0.40645 2.07264,1.73142 0.88358,1.24723 1.198097,1.1513 -3.70823,1.13104 l -3.37344,-0.0139 v 0.92032 c 0,0.50618 -0.14297,0.96798 -0.31771,1.02623 -0.23144,0.0771 -0.18938,0.37636 0.1549,1.10187 0.6166,1.29937 0.44649,1.41179 -0.53522,0.35371 z m 7.249,-9.52103 c -1.16371,-1.7806 -1.85471,-3.60913 -1.21434,-3.21336 0.19965,0.12339 0.25678,0.0538 0.16093,-0.196 -0.11408,-0.29729 0.0446,-0.37077 0.68264,-0.31613 2.838667,0.24311 4.307587,0.27666 4.785117,0.1093 0.62075,-0.21756 1.53548,-0.0771 1.35887,0.20867 -0.0647,0.10475 0.20169,0.18283 0.59207,0.17351 0.7279,-0.0174 0.99077,0.1601 1.5735,1.06237 0.184,0.28489 0.5705,0.87518 0.8589,1.31174 0.2884,0.43656 0.52299,0.91281 0.5213,1.05833 -0.002,0.14553 -0.10041,0.11115 -0.2194,-0.0764 -0.16658,-0.26256 -0.39148,-0.2744 -0.97781,-0.0515 -0.4188,0.15923 -1.06377,0.20476 -1.43325,0.10117 -1.72408,-0.48336 -3.16215,-0.62172 -3.34735,-0.32207 -0.0743,0.12014 -0.42622,0.14533 -0.78216,0.056 -0.39561,-0.0993 -0.89993,0.003 -1.297397,0.26362 -0.82054,0.53764 -0.79761,0.54072 -1.26162,-0.16927 z m 0.85737,0.0661 c 0,-0.14552 -0.11906,-0.26458 -0.26459,-0.26458 -0.14552,0 -0.26458,0.11906 -0.26458,0.26458 0,0.14552 0.11906,0.26459 0.26458,0.26459 0.14553,0 0.26459,-0.11907 0.26459,-0.26459 z m 19.931937,-1.76389 c 0.097,-0.097 0.25577,-0.097 0.35278,0 0.097,0.097 0.0176,0.17639 -0.17639,0.17639 -0.19403,0 -0.2734,-0.0794 -0.17639,-0.17639 z m -11.86979,-2.40325 c -0.39289,-0.69123 -1.00372,-1.76551 -1.35742,-2.3873 -0.73195,-1.28677 -0.58859,-1.9984 0.22636,-1.12365 0.46201,0.49591 0.59403,0.52119 1.09656,0.20999 0.37328,-0.23117 1.30498,-0.33702 2.68797,-0.3054 1.16417,0.0266 2.33264,-0.0672 2.5966,-0.20843 0.31821,-0.17028 0.59389,-0.16226 0.8181,0.0238 0.18599,0.15435 0.39999,0.21882 0.47556,0.14325 0.0756,-0.0756 0.45156,-0.018 0.83555,0.12804 0.56416,0.21449 0.69815,0.18846 0.69815,-0.1356 0,-0.59609 1.02321,0.46673 2.47424,2.57003 1.02049,1.47921 1.12407,1.73563 0.65118,1.61196 -0.36072,-0.0943 -0.49962,-0.0456 -0.38741,0.13599 0.27444,0.44405 -0.53736,0.22292 -1.12114,-0.3054 -0.29713,-0.26889 -0.66539,-0.38864 -0.84805,-0.27575 -0.17757,0.10974 -2.03054,0.1831 -4.11771,0.16302 -3.74337,-0.036 -3.95332,0.009 -3.82619,0.81376 0.0754,0.47776 -0.23859,0.10945 -0.90235,-1.05833 z m 7.28368,-4.01928 c 0,-0.13694 0.1177,-0.32172 0.26155,-0.41062 0.14999,-0.0927 0.19434,0.0135 0.10399,0.24897 -0.17589,0.45837 -0.36554,0.54223 -0.36554,0.16165 z"
         id="path3614" /><path
         style="fill:#f99005;stroke-width:0.264583"
         d="m 94.375553,142.94257 c -0.0961,-0.15544 -0.34061,-0.21895 -0.54343,-0.14112 -0.46188,0.17725 -2.75272,-0.78342 -2.75272,-1.15436 0,-0.15069 -0.13394,-0.24422 -0.29765,-0.20784 -0.16371,0.0364 -0.35608,-0.0942 -0.42749,-0.29028 -0.0987,-0.27084 -0.0113,-0.29483 0.3638,-0.0999 0.2715,0.14109 1.38661,0.26819 2.47801,0.28243 1.09141,0.0142 2.43086,0.0613 2.97656,0.10447 0.54571,0.0432 0.99219,-0.0128 0.99219,-0.12444 0,-0.11167 0.16472,-0.20303 0.36603,-0.20303 0.47155,0 0.68901,-1.12825 0.33936,-1.76071 -0.23929,-0.43283 -0.21992,-0.44733 0.17061,-0.12777 1.22023,0.99848 2.117177,3.55066 1.35117,3.84461 -0.2063,0.0792 -0.37511,0.0584 -0.37514,-0.0462 -7e-5,-0.23778 -3.37676,-0.2088 -3.6166,0.031 -0.26807,0.26807 -0.82913,0.20953 -1.0247,-0.10691 z m -6.382,-3.67515 c -1.15667,-1.54932 -1.1635,-1.58163 -1.22893,-5.81367 l -0.0508,-3.28914 1.17126,-0.0367 c 1.2785,-0.0401 2.92215,0.69437 3.4517,1.5423 0.29072,0.46553 0.27441,0.47428 -0.22814,0.12228 -0.36656,-0.25675 -0.90696,-0.33031 -1.67429,-0.2279 l -1.13303,0.15121 v 3.80564 c 0,3.24448 0.0683,3.88443 0.46303,4.33996 0.25466,0.29388 0.46302,0.57565 0.46302,0.62614 0,0.30301 -0.36931,-0.0622 -1.23378,-1.22013 z m 13.436137,0.15931 c -0.1748,-0.21063 -0.62465,-0.45996 -0.99965,-0.55408 -0.375,-0.0941 -0.608997,-0.24395 -0.519997,-0.33296 0.089,-0.089 -0.069,-0.32348 -0.35102,-0.52105 -0.28207,-0.19757 -0.77346,-0.72519 -1.09197,-1.1725 l -0.57912,-0.8133 0.56449,0.35253 c 0.31047,0.19389 0.56448,0.44998 0.56448,0.56908 0,0.1191 0.11907,0.14297 0.26459,0.053 0.14552,-0.0899 0.2682,0.0519 0.27263,0.31511 0.008,0.4612 0.0182,0.46124 0.28594,10e-4 0.219507,-0.37734 0.356777,-0.41222 0.653407,-0.16604 0.29127,0.24162 0.37552,0.23502 0.37552,-0.0295 0,-0.18759 0.0783,-0.26273 0.17409,-0.16698 0.0957,0.0957 0.33388,0.0415 0.52917,-0.12059 0.2613,-0.21687 0.45102,-0.21506 0.71841,0.007 0.54403,0.4515 1.12551,0.1013 1.40697,-0.84737 0.24387,-0.82196 0.25865,-0.80004 0.55138,0.81784 0.36663,2.02625 0.26032,2.35151 -0.81834,2.50374 -0.46304,0.0653 -1.03117,0.20191 -1.26252,0.30347 -0.24459,0.10737 -0.55365,0.0244 -0.73846,-0.19831 z m 6.05793,-2.24912 c -0.002,-0.2098 -0.16901,-0.29573 -0.40092,-0.20674 -0.25727,0.0987 -0.39831,-0.008 -0.40093,-0.30242 -0.003,-0.35401 -0.0541,-0.37567 -0.23023,-0.0978 -0.1568,0.24743 -0.28006,0.0446 -0.40187,-0.66146 -0.0966,-0.56009 -0.23501,-1.32026 -0.30751,-1.68926 -0.12824,-0.65275 -0.0925,-0.67091 1.32199,-0.67091 0.79959,0 1.33702,0.0722 1.19429,0.16039 -0.14274,0.0882 0.46319,0.18031 1.3465,0.20465 1.0005,0.0276 1.54513,-0.0543 1.44451,-0.21709 -0.0888,-0.14374 0.0171,-0.26134 0.23535,-0.26134 0.21828,0 0.47411,0.12496 0.56851,0.27771 0.10515,0.17014 0.3674,0.052 0.67707,-0.30507 0.50402,-0.58114 0.50543,-0.57689 0.50139,1.50823 -0.002,1.19736 -0.0971,1.9443 -0.22179,1.74775 -0.17528,-0.27631 -0.28038,-0.26778 -0.53891,0.0437 -0.244,0.29401 -0.52257,0.32921 -1.15953,0.14653 -0.61785,-0.1772 -0.93384,-0.14498 -1.20132,0.1225 -0.2852,0.2852 -0.53023,0.29979 -1.14411,0.0681 -0.63302,-0.23894 -0.82834,-0.22028 -1.02981,0.0984 -0.19304,0.30531 -0.24953,0.31295 -0.25268,0.0342 z m 15.36267,-1.51584 c -0.0133,-0.18338 -1.05012,-0.31043 -2.86516,-0.35109 -4.79143,-0.10733 -4.70181,-0.0646 -4.78358,-2.27948 -0.0627,-1.69848 0.2462,-2.26083 0.61358,-1.11695 0.13785,0.42922 0.22237,0.4834 0.30292,0.19421 0.0778,-0.27941 0.41049,-0.3856 1.09644,-0.35 0.54159,0.0281 2.05559,0.0768 3.36445,0.10822 1.82674,0.0438 2.455,0.1559 2.70357,0.48228 0.26155,0.34343 0.32543,-0.14291 0.33223,-2.52933 0.006,-2.13055 -0.0838,-2.98745 -0.32232,-3.07263 -0.1819,-0.065 -0.24656,-0.20866 -0.1437,-0.31931 0.80636,-0.86748 1.41058,1.69311 1.34815,5.71321 -0.027,1.73948 -0.65703,3.57652 -1.12697,3.28608 -0.12689,-0.0784 -0.29102,0.007 -0.36472,0.18979 -0.0747,0.18533 -0.14324,0.20524 -0.15489,0.045 z m -7.6938,-0.37408 c 0,-0.19403 0.0794,-0.2734 0.17639,-0.17639 0.097,0.097 0.097,0.25576 0,0.35278 -0.097,0.097 -0.17639,0.0176 -0.17639,-0.17639 z m -11.64167,-0.79375 c 0,-0.19403 0.0794,-0.2734 0.17639,-0.17639 0.097,0.097 0.097,0.25576 0,0.35278 -0.097,0.097 -0.17639,0.0176 -0.17639,-0.17639 z m -0.52917,-0.79375 c 0,-0.14552 0.12609,-0.26458 0.2802,-0.26458 0.15411,0 0.20662,0.11906 0.11668,0.26458 -0.0899,0.14552 -0.21603,0.26458 -0.2802,0.26458 -0.0642,0 -0.11668,-0.11906 -0.11668,-0.26458 z m 9.78959,-1.32292 c 0,-0.19402 0.0794,-0.2734 0.17639,-0.17639 0.097,0.097 0.097,0.25577 0,0.35278 -0.097,0.097 -0.17639,0.0176 -0.17639,-0.17639 z m 0.0209,-1.21267 c 0.0127,-0.30823 0.0754,-0.37092 0.15985,-0.15985 0.0764,0.19099 0.067,0.41919 -0.0209,0.50712 -0.0879,0.0879 -0.15045,-0.0684 -0.13897,-0.34727 z m -23.568787,-5.66649 c -0.15576,-0.29105 -0.22367,-0.52917 -0.15091,-0.52917 0.0728,0 0.25973,0.23812 0.41549,0.52917 0.15577,0.29104 0.22368,0.52916 0.15091,0.52916 -0.0728,0 -0.25973,-0.23812 -0.41549,-0.52916 z m 34.219437,0.35277 c 0.097,-0.097 0.25577,-0.097 0.35278,0 0.097,0.097 0.0176,0.17639 -0.17639,0.17639 -0.19402,0 -0.2734,-0.0794 -0.17639,-0.17639 z m -0.35277,-1.14652 c 0,-0.19403 0.0794,-0.27341 0.17639,-0.17639 0.097,0.097 0.097,0.25576 0,0.35278 -0.097,0.097 -0.17639,0.0176 -0.17639,-0.17639 z m -34.782457,-1.63553 c -0.90323,-3.04149 -0.44379,-3.69817 2.3409,-3.34587 1.02751,0.12999 2.07323,0.0932 2.86661,-0.10084 1.07856,-0.2638 1.3161,-0.24478 1.74063,0.13942 0.63412,0.57387 1.02074,0.57719 0.54849,0.005 -0.32778,-0.39734 -0.30764,-0.41063 0.20689,-0.13652 0.50821,0.27075 2.2081,2.69123 2.2081,3.14413 0,0.098 -0.25364,-0.0941 -0.56365,-0.42681 -0.41279,-0.44307 -0.61771,-0.51755 -0.76561,-0.27825 -0.1302,0.21068 -0.47044,0.26312 -0.9577,0.14761 -0.41566,-0.0985 -0.87481,-0.17572 -1.02033,-0.17152 -0.14552,0.004 -1.41705,0.0265 -2.82563,0.0496 -3.00464,0.0493 -3.1693,0.12041 -3.20513,1.38424 -0.0357,1.25781 -0.0898,1.21912 -0.57357,-0.40994 z m 34.517837,0.31261 c 0,-0.19403 0.0794,-0.2734 0.17639,-0.17639 0.097,0.097 0.097,0.25576 0,0.35278 -0.097,0.097 -0.17639,0.0176 -0.17639,-0.17639 z m -26.802767,-8.97212 c -0.83741,-1.9309 -0.82834,-1.8758 -0.30871,-1.8758 0.22285,0 0.47287,-0.17641 0.55561,-0.39203 0.10323,-0.26901 0.28743,-0.32103 0.58701,-0.16576 0.24012,0.12444 1.68673,0.22893 3.214697,0.2322 1.52797,0.003 2.97521,0.0863 3.2161,0.18446 0.37587,0.15321 2.46916,2.9903 2.2767,3.08567 -0.28457,0.14102 -1.46375,0.0824 -1.3707,-0.0682 0.17661,-0.28576 -0.73812,-0.42623 -1.35887,-0.20867 -0.47753,0.16736 -1.94645,0.13381 -4.785117,-0.1093 -0.63805,-0.0546 -0.79672,0.0188 -0.68264,0.31613 0.0905,0.23576 0.0363,0.31792 -0.13833,0.20997 -0.15782,-0.0975 -0.33305,-0.039 -0.38941,0.13003 -0.0563,0.16906 -0.42371,-0.43336 -0.81634,-1.3387 z m 9.754157,-2.06282 c -0.14358,-0.37709 -0.11319,-0.40748 0.14811,-0.14812 0.18082,0.17948 0.26212,0.39297 0.18066,0.47444 -0.0815,0.0815 -0.22941,-0.0654 -0.32877,-0.32632 z m -1.05565,-1.73988 c -0.36524,-0.62323 -0.84831,-1.65535 -1.0735,-2.29359 l -0.40943,-1.16045 0.57168,0.50766 0.57168,0.50766 -0.33691,-0.64113 -0.33691,-0.64112 0.72203,0.56795 c 0.65463,0.51493 0.78913,0.53324 1.44103,0.19613 0.39545,-0.2045 1.06803,-0.3114 1.49461,-0.23755 2.34835,0.40652 3.94951,0.3701 4.30772,-0.098 0.32795,-0.42855 0.34323,-0.41617 0.1763,0.14277 -0.16781,0.56186 -0.13864,0.58443 0.35605,0.27548 0.29637,-0.18508 0.4556,-0.46609 0.35386,-0.62446 -0.10174,-0.15838 0.0227,-0.0616 0.27662,0.21509 0.25388,0.27668 0.39652,0.60835 0.31698,0.73705 -0.0795,0.12869 0.017,0.17196 0.21462,0.0961 0.35753,-0.1372 1.10634,0.59579 2.25586,2.20819 0.33178,0.46537 0.49053,0.84614 0.35278,0.84614 -0.13775,0 -0.31051,-0.14883 -0.38391,-0.33073 -0.0807,-0.20007 -0.1417,-0.1504 -0.15434,0.12574 -0.0175,0.38263 -0.13383,0.41353 -0.71904,0.19104 -0.38399,-0.14599 -0.75998,-0.20361 -0.83555,-0.12804 -0.0756,0.0756 -0.28957,0.0111 -0.47556,-0.14325 -0.22421,-0.18608 -0.49989,-0.1941 -0.8181,-0.0238 -0.26396,0.14126 -1.43243,0.23505 -2.5966,0.20843 -1.38299,-0.0316 -2.31469,0.0742 -2.68797,0.3054 -0.50253,0.3112 -0.63455,0.28592 -1.09656,-0.20999 -0.50856,-0.54588 -1.08319,-0.32855 -0.71338,0.2698 0.0899,0.14552 0.10198,0.26458 0.0268,0.26458 -0.0752,0 -0.43558,-0.50991 -0.80082,-1.13315 z m 10.26772,-0.0712 c 0.0904,-0.23546 0.046,-0.34167 -0.10399,-0.24897 -0.14385,0.0889 -0.26155,0.27368 -0.26155,0.41062 0,0.38058 0.18965,0.29672 0.36554,-0.16165 z"
         id="path3612" /><path
         style="fill:#f87005;stroke-width:0.264583"
         d="m 97.093023,144.45023 c 0.0916,-0.1482 -0.0274,-0.18525 -0.28167,-0.0877 -0.24215,0.0929 -0.44028,0.0735 -0.44028,-0.0432 0,-0.1167 -0.17469,-0.21219 -0.38819,-0.21219 -0.77073,0 -2.54824,-0.96176 -2.27763,-1.23237 0.17314,-0.17314 0.39956,-0.1481 0.66686,0.0737 0.23126,0.19193 0.60461,0.25319 0.87111,0.14292 0.61713,-0.25533 3.77356,-0.31637 3.77363,-0.073 3e-5,0.10457 0.16884,0.12536 0.37514,0.0462 0.37788,-0.14501 0.37431,-1.35637 -0.006,-2.02847 -0.101,-0.17849 0.19858,0.0554 0.665717,0.51967 0.46714,0.46431 0.83196,0.92725 0.8107,1.02875 -0.0213,0.1015 0.0952,0.26727 0.25879,0.36838 0.8308,0.51346 -0.2093,1.65183 -1.421087,1.55535 -0.63904,-0.0509 -1.12142,-0.027 -1.07194,0.053 0.0495,0.08 -0.31139,0.14553 -0.80192,0.14553 -0.50877,0 -0.82373,-0.11024 -0.73326,-0.25663 z m 4.567437,-3.64732 c -1.709737,-2.00822 -1.826157,-2.7302 -0.21817,-1.35288 0.3347,0.28669 0.56969,0.30889 0.97479,0.0921 0.29358,-0.15712 0.83927,-0.28567 1.21264,-0.28567 0.37337,0 0.69072,-0.14883 0.70522,-0.33073 0.0464,-0.58136 0.44903,0.96009 0.47642,1.82378 0.0267,0.84146 -0.58279,1.40091 -0.92426,0.8484 -0.11557,-0.187 -0.25008,-0.16095 -0.4013,0.0777 -0.19079,0.3011 -0.22811,0.30043 -0.23151,-0.004 -0.003,-0.26554 -0.0953,-0.28736 -0.34377,-0.0812 -0.25601,0.21248 -0.56401,0.0185 -1.25006,-0.78734 z m 4.7366,-1.64004 c -0.0573,-1.28839 -0.0166,-2.47901 0.0903,-2.64583 0.12534,-0.19556 0.19583,-0.14178 0.19844,0.15141 0.003,0.29475 0.14366,0.40114 0.40093,0.30242 0.23191,-0.089 0.39855,-0.003 0.40092,0.20674 0.003,0.27876 0.0596,0.27112 0.25268,-0.0342 0.20147,-0.31865 0.39679,-0.33731 1.02981,-0.0984 0.61388,0.23172 0.85891,0.21713 1.14411,-0.0681 0.26518,-0.26518 0.58448,-0.2994 1.1854,-0.12706 0.61793,0.17722 0.92022,0.13811 1.21559,-0.15726 0.51355,-0.51355 0.7138,0.5931 0.39631,2.19009 -0.21943,1.10374 -1.01041,1.41489 -2.01634,0.79319 -0.1784,-0.11026 -0.49288,-0.0606 -0.69882,0.11029 -0.22499,0.18673 -0.69559,0.24023 -1.17904,0.13405 -0.50862,-0.11171 -0.80458,-0.0717 -0.80458,0.10889 0,0.15708 -0.1786,0.2856 -0.39688,0.2856 -0.21828,0 -0.39687,-0.19843 -0.39687,-0.44097 0,-0.66523 -0.30042,-0.22872 -0.52187,0.75827 -0.15007,0.66884 -0.22033,0.32483 -0.30006,-1.4692 z m 8.32841,-0.30331 c 0.0661,-0.29104 0.19423,-1.00541 0.28467,-1.5875 0.33789,-2.17458 0.45045,-2.52034 0.75854,-2.32993 0.40801,0.25216 0.88602,0.29394 4.21645,0.36855 1.82798,0.041 2.84572,0.1664 2.84832,0.35109 0.002,0.15806 0.11947,0.10878 0.26054,-0.1095 0.14106,-0.21828 0.26209,-0.27781 0.26894,-0.13229 0.007,0.14552 0.19959,0.0265 0.4283,-0.26458 0.40404,-0.51418 0.41054,-0.51044 0.22953,0.13229 -0.4187,1.48672 -1.5256,3.44676 -1.82002,3.22281 -0.17143,-0.13039 -0.55954,-0.089 -0.91637,0.0976 -0.43411,0.22711 -0.51314,0.36729 -0.26458,0.46931 0.19492,0.08 0.0981,0.11771 -0.2151,0.0838 -0.31323,-0.034 -0.75817,-0.2183 -0.98875,-0.40967 -0.27109,-0.22498 -0.6776,-0.27975 -1.15029,-0.15497 -1.45174,0.38321 -2.9488,0.32873 -3.1207,-0.11356 -0.13179,-0.33909 -0.23493,-0.29337 -0.55092,0.24426 -0.30057,0.51137 -0.3615,0.54139 -0.26856,0.13229 z m 7.16701,0.11469 c -0.0959,-0.1552 -0.11765,-0.33893 -0.0483,-0.40828 0.0694,-0.0694 0.1966,0.0576 0.28278,0.28218 0.1789,0.46623 0.0264,0.54824 -0.23448,0.1261 z m -35.408557,-1.87767 c -0.68045,-1.04023 -1.26634,-2.64334 -1.11254,-3.04414 0.0801,-0.20885 0.0578,-0.3254 -0.0497,-0.25898 -0.17893,0.11056 -0.19557,-0.58977 -0.0975,-4.10301 l 0.0344,-1.23161 1.05648,0.0849 c 0.58107,0.0467 1.12745,-0.03 1.21418,-0.1703 0.0962,-0.15574 0.31101,-0.12792 0.55118,0.0714 0.28919,0.24 0.44261,0.24709 0.57879,0.0267 0.11047,-0.17875 0.49697,0.25462 0.95712,1.0732 0.76885,1.36776 0.76933,1.37142 0.12526,0.95513 -0.38048,-0.24593 -1.13653,-0.40092 -1.83718,-0.37663 l -1.19062,0.0413 -0.025,3.1569 c -0.0137,1.73629 0.0852,3.37545 0.21987,3.64258 0.37017,0.73423 0.0369,0.83827 -0.42474,0.13258 z m -1.75451,-4.19014 c 0,-0.19403 0.0794,-0.2734 0.17638,-0.17639 0.097,0.097 0.097,0.25576 0,0.35278 -0.097,0.097 -0.17638,0.0176 -0.17638,-0.17639 z m -0.19786,-3.04271 c 0.003,-0.58208 0.0571,-0.78905 0.1204,-0.45993 0.0633,0.32911 0.0609,0.80536 -0.005,1.05833 -0.0662,0.25296 -0.118,-0.0163 -0.11506,-0.5984 z m 3.15622,-11.33579 c 0.0622,-1.26416 0.16503,-1.64773 0.39152,-1.46035 0.20084,0.16616 0.3738,0.14633 0.49963,-0.0573 0.13765,-0.22272 0.26154,-0.18798 0.435,0.12198 0.17185,0.30708 0.45034,0.38723 0.95557,0.27502 1.37943,-0.30635 3.88474,-0.31331 4.08243,-0.0114 0.13549,0.20698 0.19561,0.19267 0.19843,-0.0472 0.005,-0.42227 1.34965,0.84915 2.01467,1.90491 l 0.48315,0.76702 -0.65157,-0.34731 c -0.59604,-0.31772 -0.62062,-0.30981 -0.28844,0.0929 0.47225,0.57248 0.0856,0.56916 -0.54849,-0.005 -0.42453,-0.38419 -0.66207,-0.40322 -1.74063,-0.13942 -0.79871,0.19535 -1.83947,0.23085 -2.88678,0.0985 -1.21246,-0.15326 -1.81839,-0.11238 -2.3333,0.15741 l -0.69554,0.36443 0.0844,-1.71448 z m 15.718927,-6.0391 c -0.28406,-0.16491 -1.73101,-0.29179 -3.30729,-0.29001 -1.541257,0.002 -2.998747,-0.0987 -3.238867,-0.2231 -0.29958,-0.15527 -0.48378,-0.10325 -0.58701,0.16576 -0.44064,1.1483 -1.25647,0.19831 -1.60279,-1.86636 l -0.1791,-1.06777 3.12253,-0.0354 c 1.71739,-0.0194 3.122527,-0.0538 3.122527,-0.0764 0,-0.0226 0.26789,-0.091 0.59531,-0.15199 0.32742,-0.061 0.59531,0.0131 0.59531,0.16466 0,0.1516 0.39372,0.89499 0.87494,1.65199 1.48034,2.32869 1.44013,2.2137 0.60444,1.72854 z m 9.66763,-4.39661 c 0.11721,-0.7864 -0.0559,-0.89722 -0.72092,-0.46148 -0.67741,0.44385 -0.68399,0.44165 -0.5018,-0.168 0.16835,-0.56336 0.15298,-0.57644 -0.17447,-0.14854 -0.35821,0.46807 -1.95937,0.50449 -4.30772,0.098 -0.42658,-0.0739 -1.09916,0.0331 -1.49461,0.23755 -0.6519,0.33711 -0.7864,0.3188 -1.44103,-0.19613 l -0.72203,-0.56795 0.34173,0.64112 c 0.30014,0.56312 0.29325,0.60117 -0.0567,0.31269 -0.21911,-0.18063 -0.49582,-0.24016 -0.6149,-0.13229 -0.11908,0.10788 -0.13087,0.0473 -0.0262,-0.13458 0.10468,-0.18191 0.0787,-0.33073 -0.0577,-0.33073 -0.34446,0 -0.8027,-1.93604 -0.6488,-2.74112 0.11498,-0.60142 0.86559,-1.23815 0.86559,-0.73426 0,0.26152 0.26496,0.28911 3.57188,0.37199 1.4552,0.0365 2.87201,0.17392 3.14845,0.30544 0.44831,0.21328 0.4852,0.1558 0.34141,-0.53199 -0.14148,-0.67671 -0.10333,-0.64999 0.31165,0.21833 0.26007,0.54418 0.94594,1.49668 1.52416,2.11666 1.36861,1.46746 1.49692,1.70303 1.02598,1.88374 -0.2157,0.0828 -0.37951,0.0655 -0.36402,-0.0384 z m -0.29909,-0.96705 c 0,-0.0642 -0.13746,-0.20163 -0.30547,-0.30546 -0.18925,-0.11697 -0.23364,-0.0726 -0.11667,0.11667 0.1885,0.305 0.42214,0.40949 0.42214,0.18879 z m -10.58334,-3.32291 c 0,-0.19402 0.0794,-0.2734 0.17639,-0.17639 0.097,0.097 0.097,0.25577 0,0.35278 -0.097,0.097 -0.17639,0.0176 -0.17639,-0.17639 z"
         id="path3610" /><path
         style="fill:#f85005;stroke-width:0.264583"
         d="m 100.90294,146.32831 c -0.16419,-0.1642 -0.30036,-0.18543 -0.30259,-0.0472 -0.002,0.13824 -0.10344,0.0946 -0.22492,-0.097 -0.12148,-0.19157 -0.387547,-0.37682 -0.591257,-0.41166 -0.20372,-0.0348 -0.84664,-0.3302 -1.42872,-0.65637 -0.91393,-0.5121 -0.95603,-0.57182 -0.30856,-0.43762 0.41237,0.0855 0.69163,0.0613 0.62056,-0.0537 -0.0711,-0.11498 0.39365,-0.16742 1.03269,-0.11653 1.070067,0.0852 1.184547,0.0329 1.448557,-0.66146 0.3455,-0.90872 0.66433,-0.51945 0.92022,1.12354 0.17943,1.15212 -0.53719,1.98669 -1.16598,1.3579 z m 2.65366,-0.45729 c 0,-0.3638 0.06,-0.51263 0.13345,-0.33073 0.0734,0.1819 0.0734,0.47956 0,0.66146 -0.0734,0.1819 -0.13345,0.0331 -0.13345,-0.33073 z m 0.17132,-1.26822 c -0.2654,-0.052 -0.3888,-0.24303 -0.30242,-0.46815 0.0803,-0.20916 0.001,-0.38029 -0.17526,-0.38029 -0.17681,0 -0.25274,-0.17842 -0.1689,-0.39688 0.0838,-0.21828 0.0561,-0.39687 -0.0615,-0.39687 -0.27457,0 -0.89358,-1.34545 -0.70553,-1.5335 0.0782,-0.0782 0.1422,0.0113 0.1422,0.19888 0,0.27318 0.079,0.27551 0.39687,0.0117 0.31996,-0.26554 0.39766,-0.259 0.40093,0.0337 0.003,0.30458 0.0407,0.30525 0.23151,0.004 0.15122,-0.23865 0.28573,-0.2647 0.4013,-0.0777 0.0956,0.1547 0.34862,0.2142 0.56224,0.13223 0.29579,-0.11351 0.3884,0.0713 0.3884,0.77506 0,1.20177 -0.5337,2.21049 -1.10982,2.09762 z m -7.004067,-0.23108 c 0.097,-0.097 0.25576,-0.097 0.35278,0 0.097,0.097 0.0176,0.17639 -0.17639,0.17639 -0.19403,0 -0.2734,-0.0794 -0.17639,-0.17639 z m 9.838897,-1.98225 c 0.0647,-1.7773 0.62339,-3.9648 0.64819,-2.53772 0.004,0.25466 0.18664,0.46302 0.40492,0.46302 0.21828,0 0.39688,-0.12852 0.39688,-0.2856 0,-0.18055 0.29596,-0.2206 0.80458,-0.10889 0.47939,0.10529 0.95379,0.0529 1.17372,-0.12963 0.26646,-0.22115 0.51567,-0.22792 0.89604,-0.0243 0.2898,0.15509 0.72751,0.20501 0.9727,0.11093 0.56883,-0.21828 0.27692,1.50082 -0.31293,1.84287 -0.20363,0.11808 -0.28981,0.34484 -0.1915,0.5039 0.10309,0.16681 0.0572,0.21409 -0.10845,0.11171 -0.15795,-0.0976 -0.36317,-0.0545 -0.45604,0.0957 -0.0929,0.15027 -0.27016,0.21061 -0.39397,0.13409 -0.12381,-0.0765 -0.46204,0.16208 -0.75163,0.53022 -0.3503,0.44534 -0.56784,0.55687 -0.65002,0.33325 -0.0679,-0.18486 -0.21244,-0.002 -0.32112,0.40751 l -0.19762,0.74361 -0.87648,-0.9569 -0.87649,-0.9569 -0.11724,0.87475 c -0.0645,0.48111 -0.0841,-0.0371 -0.0435,-1.1516 z m 10.18124,1.3805 c 0,-0.13693 0.11906,-0.32255 0.26458,-0.41249 0.14552,-0.0899 0.26458,0.0221 0.26458,0.24897 0,0.22687 -0.11906,0.41249 -0.26458,0.41249 -0.14552,0 -0.26458,-0.11204 -0.26458,-0.24897 z m -1.05855,-0.41275 c -0.17838,-0.21493 -0.4299,-0.32554 -0.55893,-0.24579 -0.12903,0.0797 -0.23823,-0.0109 -0.24265,-0.20135 -0.005,-0.21373 -0.11131,-0.16905 -0.27773,0.11667 -0.14833,0.25466 -0.44939,0.46302 -0.66903,0.46302 -0.22563,0 -0.32026,-0.12796 -0.21754,-0.29416 0.1,-0.16179 0.0177,-0.39809 -0.18282,-0.52512 -0.2834,-0.1795 -0.25461,-0.23185 0.12925,-0.235 0.36302,-0.003 0.45719,-0.14436 0.35541,-0.53358 -0.0762,-0.29125 -0.0377,-0.46726 0.0854,-0.39116 0.12314,0.0761 0.20727,-0.0823 0.18695,-0.35198 -0.0721,-0.95715 0.90875,-3.0856 1.23173,-2.67289 0.31618,0.40402 1.62373,0.46255 3.01526,0.13498 0.59034,-0.13897 1.00336,-0.0949 1.28258,0.13682 0.22651,0.18799 0.66812,0.37745 0.98135,0.42102 0.33592,0.0467 0.44211,-0.004 0.2589,-0.12313 -0.20953,-0.13651 -0.10198,-0.30081 0.33056,-0.50493 0.35263,-0.16642 0.70227,-0.20368 0.77698,-0.0828 0.22361,0.3618 -0.46841,1.61274 -0.81796,1.4786 -0.18848,-0.0723 -0.29583,0.0615 -0.25703,0.32051 0.0366,0.24458 -0.15569,0.60167 -0.4274,0.79353 -0.27171,0.19186 -0.42365,0.4627 -0.33764,0.60187 0.086,0.13917 0.0582,0.23086 -0.0617,0.20375 -0.29682,-0.0671 -1.67331,0.51427 -1.67331,0.7067 0,0.0849 0.14883,0.0791 0.33073,-0.0131 0.1819,-0.0921 0.0926,0.0159 -0.19844,0.23994 -0.29104,0.22411 -0.67799,0.53529 -0.85989,0.69151 -0.42314,0.3634 -0.43476,-0.0561 -0.0132,-0.47765 0.53796,-0.53796 -0.27305,-0.38519 -1.10679,0.20849 -0.64497,0.45926 -0.77983,0.47641 -1.06301,0.1352 z m 6.26202,-4.80634 c -0.097,-0.097 -0.17639,-0.0176 -0.17639,0.17639 0,0.19403 0.0794,0.2734 0.17639,0.17639 0.097,-0.097 0.097,-0.25576 0,-0.35278 z m -37.096657,-6.10746 c -0.19714,-1.1701 -0.19268,-1.07868 -0.15274,-3.13637 0.035,-1.80098 0.94588,-3.31504 1.60251,-2.66356 0.23949,0.23762 0.26624,0.1865 0.11476,-0.21934 -0.18241,-0.48873 -0.15833,-0.49893 0.31506,-0.13346 1.15563,0.89219 1.96777,1.7386 1.96777,2.05083 0,0.40262 -0.43242,0.43761 -0.6694,0.0541 -0.10769,-0.17423 -0.28572,-0.18578 -0.47864,-0.031 -0.16894,0.13551 -0.75366,0.21419 -1.29936,0.17483 l -0.99219,-0.0716 -0.0464,1.22708 c -0.0255,0.67489 -0.0226,1.79262 0.007,2.48385 0.0634,1.50367 -0.13509,1.64643 -0.36791,0.26458 z m 2.80909,-14.75052 c -0.009,-0.14552 0.12294,-0.74084 0.29413,-1.32292 0.17119,-0.58208 0.28664,-1.15648 0.25655,-1.27644 -0.0301,-0.11995 0.0578,-0.14858 0.19528,-0.0636 0.13749,0.085 0.55584,-0.23361 0.92967,-0.70794 0.45954,-0.5831 0.68063,-0.72164 0.68262,-0.42772 0.003,0.50702 0.71616,0.86517 0.86043,0.43237 0.17,-0.51 2.02094,-0.34859 2.44611,0.2133 0.37648,0.49753 0.38416,0.49711 0.40637,-0.0221 0.0125,-0.29104 0.24249,0.1587 0.51119,0.99942 0.2687,0.84072 0.63632,1.70665 0.81694,1.92429 0.27222,0.32799 0.2541,0.36718 -0.10589,0.22904 -0.23887,-0.0917 -0.43613,-0.30275 -0.43835,-0.46908 -0.002,-0.16633 -0.11947,-0.12383 -0.26053,0.0944 -0.14107,0.21828 -0.25831,0.26063 -0.26054,0.0941 -0.004,-0.31325 -2.57779,-0.29906 -4.04485,0.0223 -0.52546,0.1151 -0.77812,0.0444 -0.89079,-0.2492 -0.12143,-0.31642 -0.24073,-0.34062 -0.52326,-0.10614 -0.20129,0.16705 -0.37435,0.19986 -0.38458,0.0729 -0.0102,-0.12696 -0.12092,0.007 -0.24598,0.29833 -0.12507,0.29105 -0.2351,0.41011 -0.24452,0.26459 z m 5.80076,-4.63021 c 0,-0.19403 0.0794,-0.2734 0.17639,-0.17639 0.097,0.097 0.097,0.25577 0,0.35278 -0.097,0.097 -0.17639,0.0176 -0.17639,-0.17639 z m 1.18279,-3.98143 c -0.26425,-0.42757 0.23103,-3.11083 0.5515,-2.98786 0.18799,0.0721 0.4783,-0.12388 0.64513,-0.43561 0.23304,-0.43545 0.38554,-0.49853 0.65819,-0.27225 0.26235,0.21773 0.40603,0.21174 0.5511,-0.023 0.14329,-0.23184 0.28609,-0.19463 0.52924,0.13791 0.27791,0.38005 0.36974,0.39366 0.55493,0.0823 0.12205,-0.20523 0.48997,-0.44056 0.81759,-0.52295 0.32763,-0.0824 0.52896,-0.0418 0.44741,0.0901 -0.0815,0.13194 0.0399,0.2399 0.26989,0.2399 0.22999,0 0.552077,0.29393 0.715757,0.65317 0.16368,0.35923 0.42902,0.57827 0.58964,0.48674 0.16062,-0.0915 0.20378,-0.069 0.0959,0.0501 -0.10788,0.11908 -0.0871,0.34795 0.0463,0.50858 0.39383,0.47455 0.45475,1.85724 0.0837,1.9007 -0.1819,0.0213 -0.3605,0.0617 -0.39688,0.0897 -0.17564,0.13541 -6.075777,0.13777 -6.159397,0.002 z m 16.651317,-3.99695 c -0.11696,-0.18926 -0.0726,-0.23364 0.11668,-0.11668 0.305,0.1885 0.40949,0.42214 0.18879,0.42214 -0.0642,0 -0.20163,-0.13746 -0.30547,-0.30546 z m -14.306327,-0.40009 c 0.097,-0.097 0.25577,-0.097 0.35278,0 0.097,0.097 0.0176,0.17639 -0.17639,0.17639 -0.19403,0 -0.2734,-0.0794 -0.17639,-0.17639 z m 5.397757,-0.74965 c -0.2854,-1.60269 -0.23179,-2.89647 0.13644,-3.2932 0.26459,-0.28505 0.26459,-0.31897 0,-0.16959 -0.20436,0.11538 -0.33073,0.0256 -0.33073,-0.23508 0,-0.339808 0.10286,-0.366748 0.52917,-0.13859 0.3856,0.20636 0.52917,0.20121 0.52917,-0.019 0,-0.166215 0.17859,-0.233672 0.39687,-0.14991 0.21828,0.08376 0.39688,0.05424 0.39688,-0.06561 0,-0.345645 3.39184,-0.346167 4.3473,-6.62e-4 1.01531,0.367142 1.89214,1.866202 2.12915,3.640062 0.13933,1.04283 0.10834,1.1337 -0.31674,0.92886 -0.25914,-0.12489 -1.6618,-0.25691 -3.117,-0.29338 -3.30692,-0.0829 -3.57188,-0.11047 -3.57188,-0.37199 0,-0.46975 -0.76898,0.1204 -0.85149,0.65348 -0.0592,0.38211 -0.15145,0.22044 -0.27714,-0.48539 z m 7.74321,-4.894798 c 0,-0.194028 0.0794,-0.273403 0.17639,-0.176389 0.097,0.09701 0.097,0.255764 0,0.352778 -0.097,0.09701 -0.17639,0.01764 -0.17639,-0.176389 z"
         id="path3608" /><path
         style="fill:#ed2708;stroke-width:0.264583"
         d="m 101.4643,149.62293 c -0.34685,-0.0493 -0.59593,-0.27011 -0.59679,-0.52916 -0.003,-0.82204 -0.54403,-2.40754 -0.966027,-2.82955 -0.23012,-0.23012 -0.35887,-0.47793 -0.28611,-0.55069 0.0728,-0.0728 0.32506,0.0605 0.560657,0.29608 0.23561,0.23561 0.42837,0.33653 0.42837,0.22427 0,-0.11226 0.14005,-0.0641 0.31121,0.1071 0.23033,0.23032 0.40389,0.23428 0.66785,0.0152 0.5451,-0.45239 0.6409,-0.16481 0.5551,1.66635 -0.0739,1.57707 -0.11706,1.67953 -0.67426,1.60039 z m 2.16965,-2.56378 c 0.01,-1.89979 0.0942,-2.48505 0.34389,-2.38955 0.1819,0.0696 0.33073,-0.0413 0.33073,-0.24648 0,-0.20512 0.11906,-0.44654 0.26458,-0.53647 0.1703,-0.10525 0.26459,0.87919 0.26459,2.76251 0,2.87676 -0.0102,2.92603 -0.60847,2.92603 -0.59317,0 -0.60814,-0.0633 -0.59532,-2.51604 z m 2.5267,1.57454 c 0,-0.51782 0.13752,-2.06046 0.30559,-3.42808 l 0.30558,-2.48658 0.85234,0.93054 0.85234,0.93055 0.19762,-0.74361 c 0.10868,-0.40899 0.25319,-0.59237 0.32112,-0.40751 0.0819,0.2228 0.30402,0.10662 0.659,-0.34466 0.29452,-0.37442 0.60238,-0.61388 0.68414,-0.53212 0.0817,0.0817 0.44651,-0.12034 0.81057,-0.44909 l 0.66192,-0.59773 -0.55197,0.79375 c -0.30359,0.43656 -0.93129,1.15093 -1.3949,1.5875 -0.86904,0.81834 -2.06467,2.95403 -2.62917,4.69635 -0.41925,1.294 -1.07418,1.3249 -1.07418,0.0507 z m 2.11667,0.80071 c 0,-0.72383 1.147,-2.38629 2.96698,-4.30036 2.26655,-2.38371 2.79213,-2.81912 2.50744,-2.07724 -0.22791,0.59394 0.50598,0.56814 0.85439,-0.0301 0.16642,-0.28572 0.27276,-0.3304 0.27773,-0.11667 0.004,0.19049 0.11362,0.28109 0.24265,0.20135 0.12903,-0.0798 0.38055,0.0309 0.55893,0.24579 0.28318,0.34121 0.41804,0.32405 1.06301,-0.13521 0.83374,-0.59367 1.64475,-0.74645 1.10679,-0.20849 -0.42153,0.42153 -0.40991,0.84106 0.0132,0.47766 0.1819,-0.15622 0.56885,-0.4674 0.85989,-0.69151 0.29104,-0.22411 0.36194,-0.32072 0.15756,-0.21468 -0.24431,0.12675 -0.30694,0.0882 -0.18282,-0.11267 0.10383,-0.16801 0.32407,-0.30546 0.48942,-0.30546 0.16535,0 0.63457,-0.31994 1.04272,-0.71096 1.57121,-1.50532 0.64915,-0.19285 -1.0617,1.51123 -1.49194,1.48604 -2.37248,2.07853 -5.09323,3.42715 -1.8092,0.89677 -3.6523,1.97934 -4.09579,2.40571 -0.702,0.67488 -1.7072,1.04843 -1.7072,0.63441 z m 8.99583,-5.82795 c 0,-0.22687 -0.11906,-0.33891 -0.26458,-0.24897 -0.14552,0.0899 -0.26458,0.27556 -0.26458,0.41249 0,0.13693 0.11906,0.24897 0.26458,0.24897 0.14552,0 0.26458,-0.18562 0.26458,-0.41249 z m -14.02291,0.41249 c 0,-0.19403 0.0794,-0.2734 0.17639,-0.17639 0.097,0.097 0.097,0.25576 0,0.35278 -0.097,0.097 -0.17639,0.0176 -0.17639,-0.17639 z M 113.5774,142.233 c 0.005,-0.10914 0.19924,-0.43656 0.43247,-0.7276 0.37266,-0.46504 0.40371,-0.47043 0.25617,-0.0445 -0.0923,0.26656 -0.16789,0.59399 -0.16789,0.72761 0,0.13361 -0.11906,0.24294 -0.26458,0.24294 -0.14552,0 -0.2608,-0.0893 -0.25617,-0.19844 z m 7.53221,-1.91823 c 0.0899,-0.14552 0.22305,-0.26458 0.29581,-0.26458 0.0728,0 0.0587,0.11906 -0.0312,0.26458 -0.0899,0.14552 -0.22306,0.26459 -0.29582,0.26459 -0.0728,0 -0.0587,-0.11907 0.0312,-0.26459 z M 87.639823,127.11604 c 0,-0.12879 -0.31608,-0.44126 -0.7024,-0.69439 -0.66919,-0.43847 -0.69392,-0.43814 -0.52311,0.007 0.1453,0.37864 0.10876,0.40868 -0.19274,0.15846 -0.28995,-0.24064 -0.40621,-0.21971 -0.52692,0.0949 -0.34944,0.91062 -0.65727,0.34798 -0.32201,-0.58856 0.76592,-2.13959 1.46041,-3.13303 1.47971,-2.11667 0.004,0.18191 0.28782,1.01534 0.63192,1.85209 0.34411,0.83674 0.51987,1.52135 0.3906,1.52135 -0.12928,1e-5 -0.23505,-0.10536 -0.23505,-0.23414 z m 1.18813,-13.12731 c 0.66796,-1.59418 3.17403,-4.36562 3.94762,-4.36562 0.35261,0 0.58081,1.07889 0.83947,3.96875 0.11967,1.33711 0.0976,1.41405 -0.27192,0.94809 -0.4451,-0.56126 -2.29519,-0.72139 -2.46455,-0.2133 -0.14097,0.42291 -0.8575,0.0801 -0.8575,-0.41031 0,-0.25542 -0.35402,-0.0178 -0.92913,0.62362 l -0.92914,1.03627 z m 11.644157,-7.80521 c -0.22575,-0.43656 -0.593017,-0.79375 -0.816157,-0.79375 -0.22313,0 -0.33897,-0.10796 -0.25742,-0.2399 0.0815,-0.13195 -0.11978,-0.1725 -0.44741,-0.0901 -0.32762,0.0824 -0.69554,0.31772 -0.81759,0.52295 -0.18519,0.31139 -0.27702,0.29778 -0.55493,-0.0823 -0.24315,-0.33253 -0.38595,-0.36974 -0.52924,-0.1379 -0.14507,0.23474 -0.28875,0.24073 -0.5511,0.023 -0.27216,-0.22587 -0.42301,-0.1672 -0.64721,0.25173 -0.48579,0.90771 -0.89029,0.65812 -0.71218,-0.43944 0.46892,-2.88957 2.84293,-5.781713 4.58245,-5.582558 l 0.750787,0.08596 0.0298,2.513538 c 0.0164,1.38245 0.15258,3.01956 0.3026,3.63802 0.32182,1.32671 0.22988,1.41816 -0.33245,0.33073 z m -3.130897,-1.4993 c -0.097,-0.097 -0.25576,-0.097 -0.35278,0 -0.097,0.097 -0.0176,0.17639 0.17639,0.17639 0.19403,0 0.27341,-0.0794 0.17639,-0.17639 z m 12.287927,-3.81326 c -0.52841,-1.069318 -5.58515,-1.981379 -5.58515,-1.007369 0,0.119849 -0.1786,0.149379 -0.39688,0.06561 -0.21828,-0.08376 -0.39687,-0.02423 -0.39687,0.132289 0,0.15653 -0.1786,0.21606 -0.39688,0.13229 -0.81781,-0.313821 0.047,-3.558164 1.36646,-5.126252 1.44894,-1.721974 6.91569,-2.432547 9.3985,-1.221629 1.05369,0.513908 1.10596,1.077015 0.12286,1.323756 -1.79056,0.449403 -3.36838,2.5476 -3.60664,4.796157 -0.1599,1.509078 -0.18487,1.553798 -0.5054,0.905148 z m -7.30494,-0.24369 c 0.0899,-0.14552 0.22305,-0.26458 0.29581,-0.26458 0.0728,0 0.0587,0.11906 -0.0312,0.26458 -0.0899,0.14552 -0.22305,0.26459 -0.29581,0.26459 -0.0728,0 -0.0587,-0.11907 0.0312,-0.26459 z"
         id="path3606" /><path
         style="fill:#010101;stroke-width:0.264583"
         d="m 102.05961,204.0469 c -27.481477,-3.21573 -31.411897,-41.21456 -5.151737,-49.80638 2.74349,-0.89762 2.76969,-0.91411 2.68809,-1.69241 -0.15947,-1.52114 0.26173,-1.65 5.392967,-1.65 5.19384,0 5.89376,0.22933 5.54509,1.81686 -0.15109,0.68789 -0.0894,0.74189 1.2339,1.08106 9.12378,2.33835 16.67255,10.16327 18.64727,19.32941 3.65514,16.96623 -11.00398,32.95185 -28.35558,30.92146 z m 16.72363,-38.60937 c 2.95693,-1.03079 0.3292,-5.64549 -3.54557,-6.22654 -4.33162,-0.64957 -2.97608,4.93827 1.49012,6.14263 0.66375,0.17899 1.21882,0.33347 1.23349,0.3433 0.0146,0.01 0.38455,-0.10691 0.82196,-0.25939 z"
         id="path3604" /></g><path
       id="path89238"
       style="fill:#3030e8;fill-opacity:1;stroke-width:0.147;stroke-dasharray:none"
       d="m 103.84538,185.30119 c -1.89346,-0.29908 -2.48883,-0.74325 -6.966295,-5.19713 -2.20008,-2.18848 -3.91471,-3.58511 -5.85356,-4.76793 -0.85269,-0.5202 -1.74265,-1.11154 -1.97769,-1.31409 l -0.42736,-0.36828 v -5.88584 c 0,-6.47765 0.009,-6.55003 0.79092,-6.39979 3.06295,0.58849 10.33883,4.96626 14.460675,8.70075 l 1.05741,0.95804 1.02699,-0.8725 c 4.18203,-3.55288 6.48557,-5.13232 10.10073,-6.92566 2.50948,-1.24485 3.86561,-1.76784 4.71308,-1.8176 l 0.53324,-0.0313 0.038,6.13888 0.038,6.13888 -0.62033,0.51804 c -0.34118,0.28493 -1.04615,0.77035 -1.56661,1.07871 -1.742,1.03213 -3.63703,2.61497 -6.37847,5.32769 -4.29434,4.24935 -6.06029,5.17855 -8.96873,4.71914 z m 11.16926,-8.83866 c 1.02828,-0.77202 2.99219,-2.05246 4.35992,-2.84262 l 0.69151,-0.3995 v -1.26103 c 0,-0.69356 -0.0507,-1.26103 -0.11259,-1.26103 -0.60115,0 -6.16547,3.63329 -7.41935,4.84454 l -0.77282,0.74656 0.0979,1.45072 0.0979,1.45072 1.00483,-0.97079 c 0.55265,-0.53394 1.4764,-1.32484 2.05277,-1.75757 z m -16.942155,0.55412 c 0.0124,-0.87471 -0.27822,-1.2202 -2.33274,-2.77358 -1.61461,-1.22077 -5.35962,-3.54472 -5.71227,-3.54472 -0.0532,0 -0.0968,0.56701 -0.0968,1.26002 v 1.26002 l 0.98268,0.55635 c 2.10326,1.1908 5.54537,3.75015 6.58756,4.89812 l 0.36396,0.4009 0.0984,-0.64667 c 0.0541,-0.35567 0.10325,-0.99037 0.10918,-1.41044 z m 1.2941,-3.03343 0.61273,-0.88983 -0.98441,-0.83329 c -2.00259,-1.69516 -8.12447,-5.43825 -8.89434,-5.43825 -0.11525,0 -0.16986,0.38296 -0.16986,1.19111 v 1.1911 l 1.15313,0.59378 c 2.42712,1.2498 4.8838,2.85784 6.70828,4.39098 0.9896,0.83159 0.8475,0.85014 1.57447,-0.2056 z m 13.037935,-0.0774 c 1.38739,-1.09677 3.61924,-2.51531 6.02376,-3.82863 l 1.63779,-0.89455 v -1.19042 c 0,-1.43366 0.18868,-1.43599 -2.59211,0.0321 -2.79132,1.4736 -7.45522,4.67312 -7.4516,5.11194 5.5e-4,0.0943 0.23007,0.46596 0.50954,0.82602 0.27946,0.36005 0.50812,0.71229 0.50812,0.78275 0,0.22042 0.10886,0.15347 1.36451,-0.83916 z m -10.39055,-2.11741 c 0.52044,-0.22099 0.97477,-0.4237 1.0096,-0.45045 0.25463,-0.19559 -3.112115,-2.95476 -5.470345,-4.48315 -1.87988,-1.21836 -7.08563,-3.90941 -7.56262,-3.90941 -0.033,0 -0.0599,0.50113 -0.0599,1.11362 v 1.11361 l 2.30565,1.19431 c 3.61261,1.8713 7.3211,4.3094 8.383355,5.51152 0.3408,0.38567 0.26191,0.39076 1.39426,-0.0901 z m 7.99768,-0.56048 c 2.2694,-1.87642 5.8566,-4.12515 8.70779,-5.45871 l 1.34663,-0.62985 v -1.16307 -1.16308 l -0.98267,0.41957 c -2.57022,1.09739 -5.28461,2.59096 -7.64911,4.20887 -1.37948,0.9439 -4.684,3.68422 -4.57607,3.79476 0.13052,0.13367 1.64438,0.91208 1.81238,0.93191 0.098,0.0115 0.70151,-0.41162 1.34105,-0.9404 z" /><path
       style="fill:#ffffff;fill-opacity:1;stroke-width:0.147;stroke-dasharray:none"
       d="m 110.01165,171.22793 c 2.2694,-1.87642 5.8566,-4.12515 8.70779,-5.45871 l 1.34663,-0.62985 v -1.16307 -1.16308 l -0.98267,0.41957 c -2.57022,1.09739 -5.28461,2.59096 -7.64911,4.20887 -1.37948,0.9439 -4.684,3.68422 -4.57607,3.79476 0.13052,0.13367 1.64438,0.91208 1.81238,0.93191 0.098,0.0115 0.70151,-0.41162 1.34105,-0.9404 z"
       id="path91547" /><path
       style="fill:#ffffff;fill-opacity:1;stroke-width:0.147;stroke-dasharray:none"
       d="m 102.01397,171.78841 c 0.52044,-0.22099 0.97477,-0.4237 1.0096,-0.45045 0.25463,-0.19559 -3.112115,-2.95476 -5.470345,-4.48315 -1.87988,-1.21836 -7.08563,-3.90941 -7.56262,-3.90941 -0.033,0 -0.0599,0.50113 -0.0599,1.11362 v 1.11361 l 2.30565,1.19431 c 3.61261,1.8713 7.3211,4.3094 8.383355,5.51152 0.3408,0.38567 0.26191,0.39076 1.39426,-0.0901 z"
       id="path91545" /><path
       style="fill:#ffffff;fill-opacity:1;stroke-width:0.147;stroke-dasharray:none"
       d="m 112.40452,173.90582 c 1.38739,-1.09677 3.61924,-2.51531 6.02376,-3.82863 l 1.63779,-0.89455 v -1.19042 c 0,-1.43366 0.18868,-1.43599 -2.59211,0.0321 -2.79132,1.4736 -7.45522,4.67312 -7.4516,5.11194 5.5e-4,0.0943 0.23007,0.46596 0.50954,0.82602 0.27946,0.36005 0.50812,0.71229 0.50812,0.78275 0,0.22042 0.10886,0.15347 1.36451,-0.83916 z"
       id="path91543" /><path
       style="fill:#ffffff;fill-opacity:1;stroke-width:0.147;stroke-dasharray:none"
       d="m 99.366585,173.98322 0.61273,-0.88983 -0.98441,-0.83329 c -2.00259,-1.69516 -8.12447,-5.43825 -8.89434,-5.43825 -0.11525,0 -0.16986,0.38296 -0.16986,1.19111 v 1.1911 l 1.15313,0.59378 c 2.42712,1.2498 4.8838,2.85784 6.70828,4.39098 0.9896,0.83159 0.8475,0.85014 1.57447,-0.2056 z"
       id="path91541" /><path
       style="fill:#ffffff;fill-opacity:1;stroke-width:0.147;stroke-dasharray:none"
       d="m 98.072485,177.01665 c 0.0124,-0.87471 -0.27822,-1.2202 -2.33274,-2.77358 -1.61461,-1.22077 -5.35962,-3.54472 -5.71227,-3.54472 -0.0532,0 -0.0968,0.56701 -0.0968,1.26002 v 1.26002 l 0.98268,0.55635 c 2.10326,1.1908 5.54537,3.75015 6.58756,4.89812 l 0.36396,0.4009 0.0984,-0.64667 c 0.0541,-0.35567 0.10325,-0.99037 0.10918,-1.41044 z"
       id="path91539" /><path
       style="fill:#ffffff;fill-opacity:1;stroke-width:0.147;stroke-dasharray:none"
       d="m 115.01464,176.46253 c 1.02828,-0.77202 2.99219,-2.05246 4.35992,-2.84262 l 0.69151,-0.3995 v -1.26103 c 0,-0.69356 -0.0507,-1.26103 -0.11259,-1.26103 -0.60115,0 -6.16547,3.63329 -7.41935,4.84454 l -0.77282,0.74656 0.0979,1.45072 0.0979,1.45072 1.00483,-0.97079 c 0.55265,-0.53394 1.4764,-1.32484 2.05277,-1.75757 z"
       id="path91537" /><path
       style="fill:#ffffff;fill-opacity:1;stroke:none;stroke-width:0.147;stroke-linejoin:round;stroke-dasharray:none;stroke-opacity:1"
       id="path89604"
       d="m 108.27378,182.17323 -3.19878,-2.20208 -3.17642,2.23418 1.10582,-3.72269 -3.106406,-2.33056 3.882206,-0.0987 1.25657,-3.67455 1.29351,3.6617 3.883,0.0596 -3.08277,2.36173 z"
       transform="translate(-0.05563917,0.52916667)" /><circle
       style="fill:#3030e8;fill-opacity:1;stroke:none;stroke-width:0.186981;stroke-linejoin:round;stroke-dasharray:none;stroke-opacity:1"
       id="path89658"
       cx="105"
       cy="178.375"
       r="1.25" /><text
       xml:space="preserve"
       style="font-style:normal;font-variant:normal;font-weight:bold;font-stretch:normal;font-size:5.64444px;font-family:Arial;-inkscape-font-specification:'Arial, Bold';font-variant-ligatures:normal;font-variant-caps:normal;font-variant-numeric:normal;font-variant-east-asian:normal;fill:#ffffff;fill-opacity:1;stroke:none;stroke-width:0.147;stroke-linejoin:round;stroke-dasharray:none;stroke-opacity:1"
       x="105.19017"
       y="190.83043"
       id="text91379"><tspan
         id="tspan91377"
         style="font-style:normal;font-variant:normal;font-weight:bold;font-stretch:normal;font-size:5.64444px;font-family:Arial;-inkscape-font-specification:'Arial, Bold';font-variant-ligatures:normal;font-variant-caps:normal;font-variant-numeric:normal;font-variant-east-asian:normal;text-align:center;text-anchor:middle;fill:#ffffff;fill-opacity:1;stroke-width:0.147"
         x="105.19017"
         y="190.83043">AF Veteran</tspan><tspan
         style="font-style:normal;font-variant:normal;font-weight:bold;font-stretch:normal;font-size:5.64444px;font-family:Arial;-inkscape-font-specification:'Arial, Bold';font-variant-ligatures:normal;font-variant-caps:normal;font-variant-numeric:normal;font-variant-east-asian:normal;text-align:center;text-anchor:middle;fill:#ffffff;fill-opacity:1;stroke-width:0.147"
         x="105.19017"
         y="197.88599"
         id="tspan91533">Marketing</tspan></text></g></svg>
